<?xml version="1.0" encoding="UTF-8"?>
<svg xmlns="http://www.w3.org/2000/svg" width="1260" height="750" viewBox="0 -22 1260 750" role="img" aria-label="evidence-traceability-board">
  <defs>
    <marker id="arrowhead" markerWidth="10" markerHeight="10" refX="8" refY="3" orient="auto" markerUnits="strokeWidth">
      <path d="M0,0 L0,6 L9,3 z" fill="#1e293b" />
    </marker>
    <marker id="arrowhead-start" markerWidth="10" markerHeight="10" refX="1" refY="3" orient="auto" markerUnits="strokeWidth">
      <path d="M9,0 L9,6 L0,3 z" fill="#1e293b" />
    </marker>
    <filter id="roughen" x="-4%" y="-4%" width="108%" height="108%">
      <feTurbulence type="fractalNoise" baseFrequency="0.018" numOctaves="1" seed="11" result="noise" />
      <feDisplacementMap in="SourceGraphic" in2="noise" scale="0.65" />
    </filter>
    <filter id="fillRoughen" x="-2%" y="-2%" width="104%" height="104%">
      <feTurbulence type="fractalNoise" baseFrequency="0.012" numOctaves="1" seed="7" result="noise" />
      <feDisplacementMap in="SourceGraphic" in2="noise" scale="0.35" />
    </filter>
  </defs>
  <rect x="0" y="-22" width="1260" height="750" fill="#ffffff" />
  <text x="40" y="40" fill="#1e293b" font-family="Virgil, Comic Sans MS, Pretendard, Apple SD Gothic Neo, Noto Sans CJK KR, Arial, sans-serif" font-size="22" font-weight="700" text-anchor="start" opacity="1"><tspan x="40" dy="0">Evidence Traceability Board — 주장→근거→산출물→심사항목</tspan></text>
  <text x="42" y="64" fill="#1e293b" font-family="Virgil, Comic Sans MS, Pretendard, Apple SD Gothic Neo, Noto Sans CJK KR, Arial, sans-serif" font-size="12" font-weight="500" text-anchor="start" opacity="1"><tspan x="42" dy="0">발표에서 강한 주장을 할 때 바로 백업할 수 있는 근거 연결판</tspan></text>
  <path d="M 55.945382925738905 100.95866449476654 L 314.67475261892537 99.66147104989771 L 316.5001788801514 139.51346044917904 L 55.031391916966854 138.01811034793923 Z" fill="#1e293b" stroke="none" opacity="0.9" filter="url(#fillRoughen)" />
  <path d="M 54.845644383212935 99.82142505145664 L 317.1328160219902 102.15703535374651 L 313.835954211032 136.81173487927572 L 54.02220244410499 137.04642177586126 Z" fill="none" stroke="#1e293b" stroke-width="1.15" stroke-linecap="round" stroke-linejoin="round" opacity="0.34" filter="url(#roughen)" />
  <path d="M 54.420540408352515 99.43850958997815 L 315.5141036884426 100.496134506817 L 313.6726757765218 136.69064495814746 L 55.03148120188422 138.0135120202586 Z" fill="none" stroke="#1e293b" stroke-width="0.9" stroke-linecap="round" stroke-linejoin="round" opacity="0.22" />
  <text x="185" y="123" fill="#f8fafc" font-family="Virgil, Comic Sans MS, Pretendard, Apple SD Gothic Neo, Noto Sans CJK KR, Arial, sans-serif" font-size="12" font-weight="500" text-anchor="middle" opacity="1"><tspan x="185" dy="0">핵심 주장</tspan></text>
  <path d="M 339.0259799322872 99.03926150131488 L 599.8342658349626 99.82098426593491 L 598.4568355298035 136.47011709883114 L 339.47762653692104 137.4643449678934 Z" fill="#1e293b" stroke="none" opacity="0.9" filter="url(#fillRoughen)" />
  <path d="M 342.3615071712205 102.33728783946421 L 600.5000647464767 100.52428407823301 L 597.2012063673002 135.17698703554387 L 341.5399128721654 139.5641322039217 Z" fill="none" stroke="#1e293b" stroke-width="1.15" stroke-linecap="round" stroke-linejoin="round" opacity="0.34" filter="url(#roughen)" />
  <path d="M 338.0385027936517 98.05647197527729 L 600.6513204327671 100.63335125114148 L 598.7862569303918 136.80422611201746 L 338.6480727574667 136.63010357584108 Z" fill="none" stroke="#1e293b" stroke-width="0.9" stroke-linecap="round" stroke-linejoin="round" opacity="0.22" />
  <text x="470" y="123" fill="#f8fafc" font-family="Virgil, Comic Sans MS, Pretendard, Apple SD Gothic Neo, Noto Sans CJK KR, Arial, sans-serif" font-size="12" font-weight="500" text-anchor="middle" opacity="1"><tspan x="470" dy="0">근거/출처</tspan></text>
  <path d="M 624.2570124831416 99.27029405216926 L 886.1882255207487 101.17494395172106 L 884.8097003233408 137.82298189236852 L 624.7075641955266 137.69428262649902 Z" fill="#1e293b" stroke="none" opacity="0.9" filter="url(#fillRoughen)" />
  <path d="M 624.7770000531052 99.7527807213489 L 887.4553762800888 102.47959561184504 L 883.7671609527588 136.7429416210025 L 626.4455371797424 139.46975651149864 Z" fill="none" stroke="#1e293b" stroke-width="1.15" stroke-linecap="round" stroke-linejoin="round" opacity="0.34" filter="url(#roughen)" />
  <path d="M 626.2551138428867 101.2730830245123 L 883.0361840279159 98.01821484629023 L 885.5045075516227 138.52247673324834 L 625.0171669424784 137.9991977608528 Z" fill="none" stroke="#1e293b" stroke-width="0.9" stroke-linecap="round" stroke-linejoin="round" opacity="0.22" />
  <text x="755" y="123" fill="#f8fafc" font-family="Virgil, Comic Sans MS, Pretendard, Apple SD Gothic Neo, Noto Sans CJK KR, Arial, sans-serif" font-size="12" font-weight="500" text-anchor="middle" opacity="1"><tspan x="755" dy="0">보여줄 산출물</tspan></text>
  <path d="M 908.982248740709 98.99553030973662 L 1170.0029580775422 99.9896765085146 L 1168.410996224012 136.42427779303964 L 911.4671628404798 139.45388127145216 Z" fill="#1e293b" stroke="none" opacity="0.9" filter="url(#fillRoughen)" />
  <path d="M 912.1249932210485 102.10077388929221 L 1170.6510601044054 100.67527943616157 L 1166.9348323199513 134.91061298819506 L 907.5916827061893 135.61590203794555 Z" fill="none" stroke="#1e293b" stroke-width="1.15" stroke-linecap="round" stroke-linejoin="round" opacity="0.34" filter="url(#roughen)" />
  <path d="M 908.1998701845529 98.21783936617845 L 1171.080671628374 101.0627024467482 L 1168.9504764758167 136.96844565744243 L 911.5632941149322 139.54532493330663 Z" fill="none" stroke="#1e293b" stroke-width="0.9" stroke-linecap="round" stroke-linejoin="round" opacity="0.22" />
  <text x="1040" y="123" fill="#f8fafc" font-family="Virgil, Comic Sans MS, Pretendard, Apple SD Gothic Neo, Noto Sans CJK KR, Arial, sans-serif" font-size="12" font-weight="500" text-anchor="middle" opacity="1"><tspan x="1040" dy="0">심사항목</tspan></text>
  <path d="M 55.104691704829385 155.09141013580174 L 316.57347866801393 156.58676023704157 L 314.55090897238136 202.53762740335372 L 56.019695935565906 204.03297750459356 Z" fill="#f8fafc" stroke="none" opacity="0.9" filter="url(#fillRoughen)" />
  <path d="M 57.770093687779756 157.79431301953605 L 313.04402680297943 153.01980747122312 L 316.76210222748625 204.7863215592425 L 52.423544650786454 200.39932531903017 Z" fill="none" stroke="#94a3b8" stroke-width="1.15" stroke-linecap="round" stroke-linejoin="round" opacity="0.82" filter="url(#roughen)" />
  <path d="M 54.31557276598541 154.29760358435976 L 316.0125065624976 156.0304757441232 L 313.5441830387908 201.52621385716512 L 53.68236721171587 201.7003363933415 Z" fill="none" stroke="#94a3b8" stroke-width="0.9" stroke-linecap="round" stroke-linejoin="round" opacity="0.62" />
  <text x="185" y="178" fill="#1e293b" font-family="Virgil, Comic Sans MS, Pretendard, Apple SD Gothic Neo, Noto Sans CJK KR, Arial, sans-serif" font-size="10" font-weight="500" text-anchor="middle" opacity="1"><tspan x="185" dy="0">JB 정합성</tspan></text>
  <path d="M 339.1739813074176 154.16069973838998 L 598.3657770750266 153.37905864405423 L 599.7277640398656 202.714482470838 L 340.08805398647394 203.1013355555016 Z" fill="#f8fafc" stroke="none" opacity="0.9" filter="url(#fillRoughen)" />
  <path d="M 337.7722960837354 152.79651541549165 L 601.2939198581953 156.26970052643904 L 598.7801386158634 201.8043579476197 L 338.59389038279045 201.56967105103416 Z" fill="none" stroke="#94a3b8" stroke-width="1.15" stroke-linecap="round" stroke-linejoin="round" opacity="0.82" filter="url(#roughen)" />
  <path d="M 342.06077058905754 157.0428014074319 L 600.6797004029573 155.69766958458294 L 598.2321603151812 201.21419113355554 L 341.4512006252425 204.4691698068681 Z" fill="none" stroke="#94a3b8" stroke-width="0.9" stroke-linecap="round" stroke-linejoin="round" opacity="0.62" />
  <text x="470" y="178" fill="#1e293b" font-family="Virgil, Comic Sans MS, Pretendard, Apple SD Gothic Neo, Noto Sans CJK KR, Arial, sans-serif" font-size="10" font-weight="500" text-anchor="middle" opacity="1"><tspan x="470" dy="0">D3a~D3f / _canon §10</tspan></text>
  <path d="M 624.8453329770233 154.83205140799564 L 886.1160449541211 156.12932652314876 L 884.2916319148595 202.2783503458319 L 624.3937680426737 202.4070496117014 Z" fill="#f8fafc" stroke="none" opacity="0.9" filter="url(#fillRoughen)" />
  <path d="M 627.6897340371715 157.7139533689278 L 883.3511764604717 153.32695712871546 L 886.6781962249378 204.702415556694 L 626.0512059358766 204.02698660412034 Z" fill="none" stroke="#94a3b8" stroke-width="1.15" stroke-linecap="round" stroke-linejoin="round" opacity="0.82" filter="url(#roughen)" />
  <path d="M 625.5750437079638 155.55707452633817 L 882.9844908295862 153.0024600112118 L 884.8259187415069 202.80794955988134 L 626.8131011034625 204.83107028508817 Z" fill="none" stroke="#94a3b8" stroke-width="0.9" stroke-linecap="round" stroke-linejoin="round" opacity="0.62" />
  <text x="755" y="178" fill="#1e293b" font-family="Virgil, Comic Sans MS, Pretendard, Apple SD Gothic Neo, Noto Sans CJK KR, Arial, sans-serif" font-size="10" font-weight="500" text-anchor="middle" opacity="1"><tspan x="755" dy="0">JB ecosystem fit</tspan></text>
  <path d="M 911.3386170729153 156.3253355038877 L 1170.3179077360821 155.33118930510972 L 1168.4923998045717 201.4791182355441 L 910.8716087982458 203.88489036727344 Z" fill="#fef3c7" stroke="none" opacity="0.9" filter="url(#fillRoughen)" />
  <path d="M 907.9348163059528 152.9590356377091 L 1171.8477935967846 156.82357426502824 L 1168.9765120716943 202.00073140345066 L 912.468126820812 205.44390748905573 Z" fill="none" stroke="#94a3b8" stroke-width="1.15" stroke-linecap="round" stroke-linejoin="round" opacity="0.82" filter="url(#roughen)" />
  <path d="M 909.7718060500621 154.7538368684365 L 1168.678242769972 153.69621195159763 L 1170.5433062723473 203.52533709072168 L 911.0084926158443 204.02646179746986 Z" fill="none" stroke="#94a3b8" stroke-width="0.9" stroke-linecap="round" stroke-linejoin="round" opacity="0.62" />
  <text x="1040" y="178" fill="#1e293b" font-family="Virgil, Comic Sans MS, Pretendard, Apple SD Gothic Neo, Noto Sans CJK KR, Arial, sans-serif" font-size="10" font-weight="500" text-anchor="middle" opacity="1"><tspan x="1040" dy="0">2.1~2.5</tspan></text>
  <path d="M 53.478608675761755 211.46532710673412 L 314.9473956389463 212.96067720797393 L 316.32490761438964 262.311626045362 L 54.39369457678257 260.40697614581023 Z" fill="#f8fafc" stroke="none" opacity="0.9" filter="url(#fillRoughen)" />
  <path d="M 56.74906859650488 214.77328792826117 L 312.0230017117045 209.99878237994824 L 315.7412260643768 261.7654453961331 L 57.572659463778294 263.548440132022 Z" fill="none" stroke="#94a3b8" stroke-width="1.15" stroke-linecap="round" stroke-linejoin="round" opacity="0.82" filter="url(#roughen)" />
  <path d="M 56.76274423298024 214.74477505135462 L 313.8596780284214 211.87764721004703 L 316.0135087714329 261.99553958980727 L 56.15169294435803 262.1696621259837 Z" fill="none" stroke="#94a3b8" stroke-width="0.9" stroke-linecap="round" stroke-linejoin="round" opacity="0.62" />
  <text x="185" y="236" fill="#1e293b" font-family="Virgil, Comic Sans MS, Pretendard, Apple SD Gothic Neo, Noto Sans CJK KR, Arial, sans-serif" font-size="10" font-weight="500" text-anchor="middle" opacity="1"><tspan x="185" dy="0">제품 결정</tspan></text>
  <path d="M 338.44730323621707 211.4605848052447 L 599.4680942433346 212.454812674307 L 601.2925072825961 262.30578885162384 L 340.9322173359879 261.91893576696026 Z" fill="#f8fafc" stroke="none" opacity="0.9" filter="url(#fillRoughen)" />
  <path d="M 343.0015229193264 215.97730358757016 L 601.5275898026832 214.5518091344395 L 597.8413710435716 258.8171517118153 L 338.4683613326327 259.492580664389 Z" fill="none" stroke="#94a3b8" stroke-width="1.15" stroke-linecap="round" stroke-linejoin="round" opacity="0.82" filter="url(#roughen)" />
  <path d="M 340.92289724611277 213.94086642773843 L 599.2260739446912 212.20810476306548 L 601.6957682981146 262.71373747974025 L 339.6863211754212 260.66835199379557 Z" fill="none" stroke="#94a3b8" stroke-width="0.9" stroke-linecap="round" stroke-linejoin="round" opacity="0.62" />
  <text x="470" y="236" fill="#1e293b" font-family="Virgil, Comic Sans MS, Pretendard, Apple SD Gothic Neo, Noto Sans CJK KR, Arial, sans-serif" font-size="10" font-weight="500" text-anchor="middle" opacity="1"><tspan x="470" dy="0">제품정의·간트 G4</tspan></text>
  <path d="M 625.454172308127 213.4674538771546 L 884.1999168933136 212.186635324286 L 886.0089682625395 262.02224983156714 L 624.5401812993549 260.5268997303273 Z" fill="#f8fafc" stroke="none" opacity="0.9" filter="url(#fillRoughen)" />
  <path d="M 624.6866405968058 212.66242126504946 L 887.0036723327598 215.02789166451615 L 883.6768014964593 259.65258216470306 L 623.8630497295323 259.88726906128863 Z" fill="none" stroke="#94a3b8" stroke-width="1.15" stroke-linecap="round" stroke-linejoin="round" opacity="0.82" filter="url(#roughen)" />
  <path d="M 625.059095434928 213.07706461655374 L 886.1526587150182 214.1346895333926 L 884.2890765374501 260.30704571907575 L 625.6700362284598 261.6520670468342 Z" fill="none" stroke="#94a3b8" stroke-width="0.9" stroke-linecap="round" stroke-linejoin="round" opacity="0.62" />
  <text x="755" y="236" fill="#1e293b" font-family="Virgil, Comic Sans MS, Pretendard, Apple SD Gothic Neo, Noto Sans CJK KR, Arial, sans-serif" font-size="10" font-weight="500" text-anchor="middle" opacity="1"><tspan x="755" dy="0">은행/로컬/DB 범위표</tspan></text>
  <path d="M 909.0890148195413 212.1022963885689 L 1169.8973007222166 212.88401915318892 L 1168.536326979342 259.54960854836963 L 909.540661424175 260.52737985514744 Z" fill="#fef3c7" stroke="none" opacity="0.9" filter="url(#fillRoughen)" />
  <path d="M 911.3999592035776 214.3757398718213 L 1169.5385167788338 212.5627361105901 L 1172.4398073292664 263.41558799751 L 910.5783649045225 261.6025842362788 Z" fill="none" stroke="#94a3b8" stroke-width="1.15" stroke-linecap="round" stroke-linejoin="round" opacity="0.82" filter="url(#roughen)" />
  <path d="M 911.527570408915 214.5455395905407 L 1169.5181232862217 212.50015410459605 L 1172.2754350407458 263.2934042223714 L 912.1371403727301 263.1191711911045 Z" fill="none" stroke="#94a3b8" stroke-width="0.9" stroke-linecap="round" stroke-linejoin="round" opacity="0.62" />
  <text x="1040" y="236" fill="#1e293b" font-family="Virgil, Comic Sans MS, Pretendard, Apple SD Gothic Neo, Noto Sans CJK KR, Arial, sans-serif" font-size="10" font-weight="500" text-anchor="middle" opacity="1"><tspan x="1040" dy="0">2.2 · 4.3</tspan></text>
  <path d="M 53.30357389506036 269.316855464088 L 315.2347869326674 271.2215053636398 L 313.87279996782837 317.886081536856 L 53.77066384001418 317.7573822709865 Z" fill="#f8fafc" stroke="none" opacity="0.9" filter="url(#fillRoughen)" />
  <path d="M 56.97012142615163 272.94590209439536 L 313.478506677034 269.50272600879026 L 315.9602823258052 319.93606299404894 L 52.43865855134527 316.46287788310156 Z" fill="none" stroke="#94a3b8" stroke-width="1.15" stroke-linecap="round" stroke-linejoin="round" opacity="0.82" filter="url(#roughen)" />
  <path d="M 53.282268408914625 269.30023759054023 L 314.66333859501486 270.64536941338923 L 317.1316621187217 321.1496313003473 L 56.66647577522473 320.6485065935991 Z" fill="none" stroke="#94a3b8" stroke-width="0.9" stroke-linecap="round" stroke-linejoin="round" opacity="0.62" />
  <text x="185" y="294" fill="#1e293b" font-family="Virgil, Comic Sans MS, Pretendard, Apple SD Gothic Neo, Noto Sans CJK KR, Arial, sans-serif" font-size="10" font-weight="500" text-anchor="middle" opacity="1"><tspan x="185" dy="0">AI Agent 구조</tspan></text>
  <path d="M 338.51136375176986 269.5246453207975 L 599.5321547588874 270.5188731898598 L 601.356567798149 320.36984936717664 L 340.99635952182496 319.9830779527973 Z" fill="#f8fafc" stroke="none" opacity="0.9" filter="url(#fillRoughen)" />
  <path d="M 339.81978423314166 270.7955649013854 L 598.3460000446639 269.3702193764202 L 600.829623333488 319.80540400173174 L 341.4866226478914 320.5108419796477 Z" fill="none" stroke="#94a3b8" stroke-width="1.15" stroke-linecap="round" stroke-linejoin="round" opacity="0.82" filter="url(#roughen)" />
  <path d="M 340.33302826197655 271.3509974436022 L 598.6360944654643 269.61812528383876 L 601.1058993139784 320.123868495604 L 339.09634169619443 318.0783725145688 Z" fill="none" stroke="#94a3b8" stroke-width="0.9" stroke-linecap="round" stroke-linejoin="round" opacity="0.62" />
  <text x="470" y="294" fill="#1e293b" font-family="Virgil, Comic Sans MS, Pretendard, Apple SD Gothic Neo, Noto Sans CJK KR, Arial, sans-serif" font-size="10" font-weight="500" text-anchor="middle" opacity="1"><tspan x="470" dy="0">agent-roster / agent-flow</tspan></text>
  <path d="M 625.2410957452238 271.2278141761962 L 884.2203047381063 270.2335863071339 L 885.811253369672 319.7979718006444 L 624.7905440328387 318.80382560186644 Z" fill="#f8fafc" stroke="none" opacity="0.9" filter="url(#fillRoughen)" />
  <path d="M 626.8578312740098 272.88205060576604 L 884.5406506098901 270.51643127813384 L 887.8693690862435 321.8935884179998 L 625.19099285926 319.16677352750366 Z" fill="none" stroke="#94a3b8" stroke-width="1.15" stroke-linecap="round" stroke-linejoin="round" opacity="0.82" filter="url(#roughen)" />
  <path d="M 625.1551286332904 271.1371594516647 L 884.0615653532002 270.0795345348258 L 885.9042535997471 319.88628441812153 L 626.3917047039819 320.40967388560756 Z" fill="none" stroke="#94a3b8" stroke-width="0.9" stroke-linecap="round" stroke-linejoin="round" opacity="0.62" />
  <text x="755" y="294" fill="#1e293b" font-family="Virgil, Comic Sans MS, Pretendard, Apple SD Gothic Neo, Noto Sans CJK KR, Arial, sans-serif" font-size="10" font-weight="500" text-anchor="middle" opacity="1"><tspan x="755" dy="0">AgentRun demo</tspan></text>
  <path d="M 911.556583135076 272.54330156604834 L 1169.4108385490977 270.42412011812536 L 1171.0028820729124 319.9896005038846 L 911.1050182007265 320.1182997697541 Z" fill="#fef3c7" stroke="none" opacity="0.9" filter="url(#fillRoughen)" />
  <path d="M 907.4625555860257 268.486774917782 L 1169.323849082604 270.2996297508477 L 1172.65086884707 321.6750881788263 L 911.9938695326666 320.96965020091034 Z" fill="none" stroke="#94a3b8" stroke-width="1.15" stroke-linecap="round" stroke-linejoin="round" opacity="0.82" filter="url(#roughen)" />
  <path d="M 909.2241159598632 270.20614677823755 L 1171.2112983218187 272.2292675034444 L 1168.452615737578 317.43464655595244 L 910.4620628602714 319.48003204189706 Z" fill="none" stroke="#94a3b8" stroke-width="0.9" stroke-linecap="round" stroke-linejoin="round" opacity="0.62" />
  <text x="1040" y="294" fill="#1e293b" font-family="Virgil, Comic Sans MS, Pretendard, Apple SD Gothic Neo, Noto Sans CJK KR, Arial, sans-serif" font-size="10" font-weight="500" text-anchor="middle" opacity="1"><tspan x="1040" dy="0">3.1~3.5</tspan></text>
  <path d="M 54.93881523624035 328.92553366721273 L 314.13052933356505 328.1438109025927 L 315.5089728606886 377.49569129166093 L 55.852806245012395 377.86608781404004 Z" fill="#f8fafc" stroke="none" opacity="0.9" filter="url(#fillRoughen)" />
  <path d="M 52.72299462482869 326.747213956585 L 316.24461839928864 330.22039906753236 L 313.76099511046453 375.7852144422208 L 53.57459794922606 375.5503786174698 Z" fill="none" stroke="#94a3b8" stroke-width="1.15" stroke-linecap="round" stroke-linejoin="round" opacity="0.82" filter="url(#roughen)" />
  <path d="M 52.8439826761242 326.82601349449857 L 316.062912491095 330.08088167272064 L 313.5932181376715 375.57524895604587 L 56.81214795264233 378.83011713426794 Z" fill="none" stroke="#94a3b8" stroke-width="0.9" stroke-linecap="round" stroke-linejoin="round" opacity="0.62" />
  <text x="185" y="352" fill="#1e293b" font-family="Virgil, Comic Sans MS, Pretendard, Apple SD Gothic Neo, Noto Sans CJK KR, Arial, sans-serif" font-size="10" font-weight="500" text-anchor="middle" opacity="1"><tspan x="185" dy="0">동작 MVP</tspan></text>
  <path d="M 338.3986814656059 327.38539989657824 L 599.8674684287904 328.8807499978181 L 601.228442171665 378.21516060263735 L 339.3136856963424 376.32696726537006 Z" fill="#f8fafc" stroke="none" opacity="0.9" filter="url(#fillRoughen)" />
  <path d="M 341.0055220608845 330.0297413926408 L 602.4794551775277 331.4552358457714 L 599.9675215752487 376.99174090700495 L 341.8289639999925 378.8047446682362 Z" fill="none" stroke="#94a3b8" stroke-width="1.15" stroke-linecap="round" stroke-linejoin="round" opacity="0.82" filter="url(#roughen)" />
  <path d="M 340.4544446014227 329.4364754197971 L 602.1735326635823 331.1915018452079 L 599.7052091398754 376.6872399582498 L 339.8433933128005 376.86136249442615 Z" fill="none" stroke="#94a3b8" stroke-width="0.9" stroke-linecap="round" stroke-linejoin="round" opacity="0.62" />
  <text x="470" y="352" fill="#1e293b" font-family="Virgil, Comic Sans MS, Pretendard, Apple SD Gothic Neo, Noto Sans CJK KR, Arial, sans-serif" font-size="10" font-weight="500" text-anchor="middle" opacity="1"><tspan x="470" dy="0">function-spec / live verification</tspan></text>
  <path d="M 624.7071978381852 328.6939162691575 L 883.686488501352 327.69977007037954 L 885.2774371329177 377.26415556389003 L 624.2566461258001 376.26992769482774 Z" fill="#f8fafc" stroke="none" opacity="0.9" filter="url(#fillRoughen)" />
  <path d="M 623.9435411733676 327.9677605051239 L 887.8265094388571 331.8022901071008 L 884.955227913767 376.9794472455232 L 622.2768516867833 374.25263235502706 Z" fill="none" stroke="#94a3b8" stroke-width="1.15" stroke-linecap="round" stroke-linejoin="round" opacity="0.82" filter="url(#roughen)" />
  <path d="M 623.3297588802943 327.3117896986687 L 886.8361956012752 330.85416478290085 L 884.0789943418416 376.06102516021605 L 624.566334950986 376.5843041326116 Z" fill="none" stroke="#94a3b8" stroke-width="0.9" stroke-linecap="round" stroke-linejoin="round" opacity="0.62" />
  <text x="755" y="352" fill="#1e293b" font-family="Virgil, Comic Sans MS, Pretendard, Apple SD Gothic Neo, Noto Sans CJK KR, Arial, sans-serif" font-size="10" font-weight="500" text-anchor="middle" opacity="1"><tspan x="755" dy="0">SME golden path</tspan></text>
  <path d="M 910.6184251095909 329.6317066786186 L 1169.133181584122 328.1199000150943 L 1171.1711129497903 378.18439451881784 L 911.068976821976 378.0556952529484 Z" fill="#fef3c7" stroke="none" opacity="0.9" filter="url(#fillRoughen)" />
  <path d="M 910.1491568375028 329.12493750574646 L 1172.8275330644863 331.85175239624266 L 1169.109308711814 376.0850893800578 L 911.8178428923054 378.8420622240617 Z" fill="none" stroke="#94a3b8" stroke-width="1.15" stroke-linecap="round" stroke-linejoin="round" opacity="0.82" filter="url(#roughen)" />
  <path d="M 909.0039287414644 328.02189792309 L 1170.3849989275645 329.36702974593896 L 1168.2533224502004 375.27129163182605 L 907.7659818410561 374.7480126594305 Z" fill="none" stroke="#94a3b8" stroke-width="0.9" stroke-linecap="round" stroke-linejoin="round" opacity="0.62" />
  <text x="1040" y="352" fill="#1e293b" font-family="Virgil, Comic Sans MS, Pretendard, Apple SD Gothic Neo, Noto Sans CJK KR, Arial, sans-serif" font-size="10" font-weight="500" text-anchor="middle" opacity="1"><tspan x="1040" dy="0">4.1~4.5</tspan></text>
  <path d="M 54.63152723799728 386.6448088070249 L 315.4232749081038 387.40999333907615 L 314.06230116522926 434.0755827342569 L 55.083092172346795 435.0698106033192 Z" fill="#f8fafc" stroke="none" opacity="0.9" filter="url(#fillRoughen)" />
  <path d="M 55.61268967518413 387.58847034342784 L 313.7512472504404 385.77546658219666 L 316.6225287755305 436.5983094437742 L 54.761086350786755 434.785305682543 Z" fill="none" stroke="#94a3b8" stroke-width="1.15" stroke-linecap="round" stroke-linejoin="round" opacity="0.82" filter="url(#roughen)" />
  <path d="M 55.92120244969176 387.9391716313174 L 313.9340200877362 385.91605090611057 L 316.6913318422603 436.7093010238859 L 56.55314766933516 436.5351784877095 Z" fill="none" stroke="#94a3b8" stroke-width="0.9" stroke-linecap="round" stroke-linejoin="round" opacity="0.62" />
  <text x="185" y="410" fill="#1e293b" font-family="Virgil, Comic Sans MS, Pretendard, Apple SD Gothic Neo, Noto Sans CJK KR, Arial, sans-serif" font-size="10" font-weight="500" text-anchor="middle" opacity="1"><tspan x="185" dy="0">API 승격</tspan></text>
  <path d="M 338.7787098963928 385.79199146542044 L 600.9244544823711 387.9111729133435 L 599.3499624130898 434.36324398211747 L 341.2811754506969 436.26789388166924 Z" fill="#f8fafc" stroke="none" opacity="0.9" filter="url(#fillRoughen)" />
  <path d="M 340.483524768656 387.45930543689974 L 602.7706964074333 389.7949157391896 L 599.4736856683096 434.4494663365533 L 339.66008282954806 434.68430216130434 Z" fill="none" stroke="#94a3b8" stroke-width="1.15" stroke-linecap="round" stroke-linejoin="round" opacity="0.82" filter="url(#roughen)" />
  <path d="M 338.1007658924909 385.11873507411656 L 599.1943291725811 386.1763599909554 L 601.9530117568218 436.9709809384474 L 338.73408194185095 433.7161127602253 Z" fill="none" stroke="#94a3b8" stroke-width="0.9" stroke-linecap="round" stroke-linejoin="round" opacity="0.62" />
  <text x="470" y="410" fill="#1e293b" font-family="Virgil, Comic Sans MS, Pretendard, Apple SD Gothic Neo, Noto Sans CJK KR, Arial, sans-serif" font-size="10" font-weight="500" text-anchor="middle" opacity="1"><tspan x="470" dy="0">간트 G5 / architecture</tspan></text>
  <path d="M 625.8026940194197 387.81597558844743 L 883.4234850257457 385.4102034567181 L 885.2314415027228 435.2447230717504 L 624.8876897886832 434.8744082196556 Z" fill="#f8fafc" stroke="none" opacity="0.9" filter="url(#fillRoughen)" />
  <path d="M 622.3181750952774 384.2939557635211 L 887.0442419800778 389.068461311834 L 883.3278652674584 433.30364593570204 L 623.9848645818618 434.00908391361804 Z" fill="none" stroke="#94a3b8" stroke-width="1.15" stroke-linecap="round" stroke-linejoin="round" opacity="0.82" filter="url(#roughen)" />
  <path d="M 624.2335212536001 386.2514904352258 L 887.1143226974211 389.0963535157955 L 884.9840170497736 435.00198623139926 L 622.996834687818 432.9788655061924 Z" fill="none" stroke="#94a3b8" stroke-width="0.9" stroke-linecap="round" stroke-linejoin="round" opacity="0.62" />
  <text x="755" y="410" fill="#1e293b" font-family="Virgil, Comic Sans MS, Pretendard, Apple SD Gothic Neo, Noto Sans CJK KR, Arial, sans-serif" font-size="10" font-weight="500" text-anchor="middle" opacity="1"><tspan x="755" dy="0">정적 MVP→API plan</tspan></text>
  <path d="M 908.6437996144276 385.6570811834552 L 1170.5749309817504 387.5616494127227 L 1169.1964874546268 434.2097690236545 L 909.0943513268126 434.081069757785 Z" fill="#fef3c7" stroke="none" opacity="0.9" filter="url(#fillRoughen)" />
  <path d="M 907.0520860768743 384.02786674511805 L 1169.7304623038578 386.7546816356142 L 1172.2423959061368 437.21817657438066 L 908.720772131677 433.7449914634332 Z" fill="none" stroke="#94a3b8" stroke-width="1.15" stroke-linecap="round" stroke-linejoin="round" opacity="0.82" filter="url(#roughen)" />
  <path d="M 909.233403473425 386.25137265505066 L 1170.6144736595252 387.59650447789966 L 1168.4829076772517 433.50087685887723 L 907.9954565730168 432.9774873913912 Z" fill="none" stroke="#94a3b8" stroke-width="0.9" stroke-linecap="round" stroke-linejoin="round" opacity="0.62" />
  <text x="1040" y="410" fill="#1e293b" font-family="Virgil, Comic Sans MS, Pretendard, Apple SD Gothic Neo, Noto Sans CJK KR, Arial, sans-serif" font-size="10" font-weight="500" text-anchor="middle" opacity="1"><tspan x="1040" dy="0">3.4 · 4.4</tspan></text>
  <path d="M 55.77211852862316 445.7588369595955 L 313.6263739426449 443.6396555116725 L 315.2184174664594 493.2051358974318 L 55.32055359427364 493.3338351633013 Z" fill="#f8fafc" stroke="none" opacity="0.9" filter="url(#fillRoughen)" />
  <path d="M 55.18478290785215 445.2090022396084 L 317.0162163072536 446.99199697549733 L 314.1430871421106 492.16730647386686 L 53.51624578121496 491.4920264494587 Z" fill="none" stroke="#94a3b8" stroke-width="1.15" stroke-linecap="round" stroke-linejoin="round" opacity="0.82" filter="url(#roughen)" />
  <path d="M 53.69426681902126 443.67629763739563 L 315.7037139417147 445.7216831233403 L 312.94514185256446 490.92717267093883 L 54.93232421452001 492.95029339614564 Z" fill="none" stroke="#94a3b8" stroke-width="0.9" stroke-linecap="round" stroke-linejoin="round" opacity="0.62" />
  <text x="185" y="468" fill="#1e293b" font-family="Virgil, Comic Sans MS, Pretendard, Apple SD Gothic Neo, Noto Sans CJK KR, Arial, sans-serif" font-size="10" font-weight="500" text-anchor="middle" opacity="1"><tspan x="185" dy="0">PII·승인 리스크</tspan></text>
  <path d="M 340.85503187346154 445.8417503044339 L 599.834240866344 444.8475224353717 L 601.4088146059096 494.39553303688194 L 340.388023598792 493.40130516781966 Z" fill="#f8fafc" stroke="none" opacity="0.9" filter="url(#fillRoughen)" />
  <path d="M 341.3532809998033 446.3775003315596 L 599.066109361026 444.0418900292697 L 602.3949767655448 495.41919609730115 L 339.68659151321896 492.6623721814627 Z" fill="none" stroke="#94a3b8" stroke-width="1.15" stroke-linecap="round" stroke-linejoin="round" opacity="0.82" filter="url(#roughen)" />
  <path d="M 340.53742095433114 445.5194517727055 L 599.443857674241 444.46182685586666 L 601.2866564158785 494.26868723425287 L 341.77399702502277 494.7919662066484 Z" fill="none" stroke="#94a3b8" stroke-width="0.9" stroke-linecap="round" stroke-linejoin="round" opacity="0.62" />
  <text x="470" y="468" fill="#1e293b" font-family="Virgil, Comic Sans MS, Pretendard, Apple SD Gothic Neo, Noto Sans CJK KR, Arial, sans-serif" font-size="10" font-weight="500" text-anchor="middle" opacity="1"><tspan x="470" dy="0">D5a/D10/D15 / gov panel</tspan></text>
  <path d="M 624.7052591711295 444.6919776021019 L 886.1905026965985 446.20378426562615 L 884.1514764386815 492.13819486965383 L 625.620263401866 493.63354497089364 Z" fill="#f8fafc" stroke="none" opacity="0.9" filter="url(#fillRoughen)" />
  <path d="M 624.9884094520212 445.01262878377753 L 886.4623425686644 446.43812323690815 L 883.9805669198931 492.0047862516494 L 625.842009344637 493.81779001288066 Z" fill="none" stroke="#94a3b8" stroke-width="1.15" stroke-linecap="round" stroke-linejoin="round" opacity="0.82" filter="url(#roughen)" />
  <path d="M 625.0589229095166 445.04095372789095 L 886.7781214667666 446.79609064839224 L 884.3096874479693 492.29171826634365 L 624.4479821159849 492.4659512976105 Z" fill="none" stroke="#94a3b8" stroke-width="0.9" stroke-linecap="round" stroke-linejoin="round" opacity="0.62" />
  <text x="755" y="468" fill="#1e293b" font-family="Virgil, Comic Sans MS, Pretendard, Apple SD Gothic Neo, Noto Sans CJK KR, Arial, sans-serif" font-size="10" font-weight="500" text-anchor="middle" opacity="1"><tspan x="755" dy="0">PII PASS + Approval</tspan></text>
  <path d="M 911.4039479458015 446.3906663767739 L 1170.5956620431261 445.60894361215384 L 1168.557730677458 491.5444491084303 L 908.9179389537819 491.9312205228096 Z" fill="#fef3c7" stroke="none" opacity="0.9" filter="url(#fillRoughen)" />
  <path d="M 911.4373359305173 446.4615552622735 L 1168.7589597035337 443.7347403717774 L 1172.4451784626453 495.4693977944016 L 912.2589302295723 495.23471089781606 Z" fill="none" stroke="#94a3b8" stroke-width="1.15" stroke-linecap="round" stroke-linejoin="round" opacity="0.82" filter="url(#roughen)" />
  <path d="M 910.5775195292844 445.5595503476587 L 1169.218714103922 444.2366832855476 L 1171.348909256479 494.33094007485334 L 909.9678390703788 492.9858082520044 Z" fill="none" stroke="#94a3b8" stroke-width="0.9" stroke-linecap="round" stroke-linejoin="round" opacity="0.62" />
  <text x="1040" y="468" fill="#1e293b" font-family="Virgil, Comic Sans MS, Pretendard, Apple SD Gothic Neo, Noto Sans CJK KR, Arial, sans-serif" font-size="10" font-weight="500" text-anchor="middle" opacity="1"><tspan x="1040" dy="0">5.5</tspan></text>
  <path d="M 56.41684227681645 504.4035607077888 L 314.2710976908382 502.28437925986583 L 315.84668465236825 551.8334030833406 L 55.94882078018245 551.9621023492101 Z" fill="#f8fafc" stroke="none" opacity="0.9" filter="url(#fillRoughen)" />
  <path d="M 52.29745529536098 500.32167462711726 L 314.1587487919393 502.134529460183 L 317.455759531063 553.4799788628193 L 56.828769242001876 552.8045499102456 Z" fill="none" stroke="#94a3b8" stroke-width="1.15" stroke-linecap="round" stroke-linejoin="round" opacity="0.82" filter="url(#roughen)" />
  <path d="M 56.17421027647197 504.15624109484634 L 313.561503132447 501.57947231407263 L 315.4028205492773 551.3848513676517 L 52.79000291016186 548.8079720917875 Z" fill="none" stroke="#94a3b8" stroke-width="0.9" stroke-linecap="round" stroke-linejoin="round" opacity="0.62" />
  <text x="185" y="526" fill="#1e293b" font-family="Virgil, Comic Sans MS, Pretendard, Apple SD Gothic Neo, Noto Sans CJK KR, Arial, sans-serif" font-size="10" font-weight="500" text-anchor="middle" opacity="1"><tspan x="185" dy="0">협업 방법론</tspan></text>
  <path d="M 339.3256753988158 502.33895696784344 L 600.1339613014911 503.1206797324635 L 598.7729875586166 549.7862691276442 L 339.7937785657341 550.7804969967065 Z" fill="#f8fafc" stroke="none" opacity="0.9" filter="url(#fillRoughen)" />
  <path d="M 338.2322056297055 501.2079862979492 L 602.5709121345708 505.595131466327 L 599.2420447300519 550.2178253982956 L 337.3806023053081 548.4048216370644 Z" fill="none" stroke="#94a3b8" stroke-width="1.15" stroke-linecap="round" stroke-linejoin="round" opacity="0.82" filter="url(#roughen)" />
  <path d="M 339.15514736265294 502.17311654427857 L 601.7679650017684 504.7499958201428 L 599.9251662601309 550.9431354417566 L 339.78698208720584 550.7690129055802 Z" fill="none" stroke="#94a3b8" stroke-width="0.9" stroke-linecap="round" stroke-linejoin="round" opacity="0.62" />
  <text x="470" y="526" fill="#1e293b" font-family="Virgil, Comic Sans MS, Pretendard, Apple SD Gothic Neo, Noto Sans CJK KR, Arial, sans-serif" font-size="10" font-weight="500" text-anchor="middle" opacity="1"><tspan x="470" dy="0">telemetry / ledgers / Excalidraw</tspan></text>
  <path d="M 625.5220505073253 503.53533207635286 L 884.0532635441407 502.03998197511305 L 886.091194909809 552.1044764788367 L 625.9890587819948 551.9757772129672 Z" fill="#f8fafc" stroke="none" opacity="0.9" filter="url(#fillRoughen)" />
  <path d="M 625.2483476728081 503.22412834105177 L 887.9567329251339 505.98095225689025 L 884.2385085724617 550.2142892407054 L 626.9168847994453 552.9411041312015 Z" fill="none" stroke="#94a3b8" stroke-width="1.15" stroke-linecap="round" stroke-linejoin="round" opacity="0.82" filter="url(#roughen)" />
  <path d="M 626.6270881279202 504.64505730954585 L 883.3858935522115 501.3679243705859 L 885.8542170759184 551.8721862575441 L 625.3890307324215 551.3710615507958 Z" fill="none" stroke="#94a3b8" stroke-width="0.9" stroke-linecap="round" stroke-linejoin="round" opacity="0.62" />
  <text x="755" y="526" fill="#1e293b" font-family="Virgil, Comic Sans MS, Pretendard, Apple SD Gothic Neo, Noto Sans CJK KR, Arial, sans-serif" font-size="10" font-weight="500" text-anchor="middle" opacity="1"><tspan x="755" dy="0">AX OS map</tspan></text>
  <path d="M 910.7200789854909 503.73336055451847 L 1168.3407883215325 501.32750675250486 L 1170.1652830310784 551.178564600106 L 909.8049930844701 550.7917115154424 Z" fill="#fef3c7" stroke="none" opacity="0.9" filter="url(#fillRoughen)" />
  <path d="M 908.6466250597375 501.62240572798123 L 1167.1726919430944 500.1969112748506 L 1169.656464160084 550.6322448283277 L 910.3133145463219 551.3375338780781 Z" fill="none" stroke="#94a3b8" stroke-width="1.15" stroke-linecap="round" stroke-linejoin="round" opacity="0.82" filter="url(#roughen)" />
  <path d="M 909.4625093479087 502.4804785295344 L 1167.7655755513965 500.74760636977095 L 1170.2353803999106 551.2533495815362 L 908.2259332772172 549.2079640955916 Z" fill="none" stroke="#94a3b8" stroke-width="0.9" stroke-linecap="round" stroke-linejoin="round" opacity="0.62" />
  <text x="1040" y="526" fill="#1e293b" font-family="Virgil, Comic Sans MS, Pretendard, Apple SD Gothic Neo, Noto Sans CJK KR, Arial, sans-serif" font-size="10" font-weight="500" text-anchor="middle" opacity="1"><tspan x="1040" dy="0">2.5 · 5.4</tspan></text>
  <path d="M 868.506809539396 598.5200911084237 L 1220.6525541253743 600.6392725563467 L 1219.0616054938084 687.0748870628362 L 870.9928185314157 688.979536962388 Z" fill="#f8fafc" stroke="none" opacity="0.9" filter="url(#fillRoughen)" />
  <path d="M 869.2986430108078 599.2744236790516 L 1221.585814649585 601.6100339813414 L 1218.2587948851192 686.2345755533629 L 868.4451920463576 686.4694113781139 Z" fill="none" stroke="#94a3b8" stroke-width="1.15" stroke-linecap="round" stroke-linejoin="round" opacity="0.82" filter="url(#roughen)" />
  <path d="M 871.9395279349386 601.9574971165642 L 1218.4107159581292 598.3927467765037 L 1221.1693985423701 689.1873677239956 L 867.9504687273992 685.9324995457736 Z" fill="none" stroke="#94a3b8" stroke-width="0.9" stroke-linecap="round" stroke-linejoin="round" opacity="0.62" />
  <text x="882" y="619" fill="#334155" font-family="Virgil, Comic Sans MS, Pretendard, Apple SD Gothic Neo, Noto Sans CJK KR, Arial, sans-serif" font-size="9" font-weight="500" text-anchor="start" opacity="1"><tspan x="882" dy="0">Source: _canon, D결과, 제출문서, 심사기준</tspan></text>
  <text x="882" y="637" fill="#334155" font-family="Virgil, Comic Sans MS, Pretendard, Apple SD Gothic Neo, Noto Sans CJK KR, Arial, sans-serif" font-size="9" font-weight="500" text-anchor="start" opacity="1"><tspan x="882" dy="0">Last generated: 2026-07-02 KST</tspan></text>
  <text x="882" y="655" fill="#334155" font-family="Virgil, Comic Sans MS, Pretendard, Apple SD Gothic Neo, Noto Sans CJK KR, Arial, sans-serif" font-size="9" font-weight="500" text-anchor="start" opacity="1"><tspan x="882" dy="0">Data quality: mixed</tspan></text>
  <text x="882" y="673" fill="#334155" font-family="Virgil, Comic Sans MS, Pretendard, Apple SD Gothic Neo, Noto Sans CJK KR, Arial, sans-serif" font-size="9" font-weight="500" text-anchor="start" opacity="1"><tspan x="882" dy="0">Next: 리서치·제출 문서 변경 · Owner: evidence + visualization</tspan></text>
</svg>
