<?xml version="1.0" encoding="UTF-8"?>
<svg xmlns="http://www.w3.org/2000/svg" width="1242" height="609" viewBox="0 -22 1242 609" role="img" aria-label="finals-demo-readiness-map">
  <defs>
    <marker id="arrowhead" markerWidth="10" markerHeight="10" refX="8" refY="3" orient="auto" markerUnits="strokeWidth">
      <path d="M0,0 L0,6 L9,3 z" fill="#1e293b" />
    </marker>
    <marker id="arrowhead-start" markerWidth="10" markerHeight="10" refX="1" refY="3" orient="auto" markerUnits="strokeWidth">
      <path d="M9,0 L9,6 L0,3 z" fill="#1e293b" />
    </marker>
    <filter id="roughen" x="-4%" y="-4%" width="108%" height="108%">
      <feTurbulence type="fractalNoise" baseFrequency="0.018" numOctaves="1" seed="11" result="noise" />
      <feDisplacementMap in="SourceGraphic" in2="noise" scale="0.65" />
    </filter>
    <filter id="fillRoughen" x="-2%" y="-2%" width="104%" height="104%">
      <feTurbulence type="fractalNoise" baseFrequency="0.012" numOctaves="1" seed="7" result="noise" />
      <feDisplacementMap in="SourceGraphic" in2="noise" scale="0.35" />
    </filter>
  </defs>
  <rect x="0" y="-22" width="1242" height="609" fill="#ffffff" />
  <text x="40" y="40" fill="#1e293b" font-family="Virgil, Comic Sans MS, Pretendard, Apple SD Gothic Neo, Noto Sans CJK KR, Arial, sans-serif" font-size="22" font-weight="700" text-anchor="start" opacity="1"><tspan x="40" dy="0">본선 시연 준비도 맵 — 실격 리스크 방어</tspan></text>
  <text x="42" y="64" fill="#1e293b" font-family="Virgil, Comic Sans MS, Pretendard, Apple SD Gothic Neo, Noto Sans CJK KR, Arial, sans-serif" font-size="12" font-weight="500" text-anchor="start" opacity="1"><tspan x="42" dy="0">공식 안내 기준: 본선은 발표평가이며, 발표 시 반드시 시연 가능해야 한다.</tspan></text>
  <path d="M 45.945382925738905 95.95866449476654 L 282.67475261892537 94.66147104989771 L 284.5001788801514 406.51346044917904 L 45.031391916966854 405.0181103479392 Z" fill="#fee2e2" stroke="none" opacity="0.9" filter="url(#fillRoughen)" />
  <path d="M 44.845644383212935 94.82142505145664 L 285.1328160219902 97.15703535374651 L 281.835954211032 403.8117348792757 L 44.02220244410499 404.0464217758613 Z" fill="none" stroke="#334155" stroke-width="1.15" stroke-linecap="round" stroke-linejoin="round" opacity="0.82" filter="url(#roughen)" />
  <path d="M 44.420540408352515 94.43850958997815 L 283.5141036884426 95.496134506817 L 281.6726757765218 403.69064495814746 L 45.03148120188422 405.0135120202586 Z" fill="none" stroke="#334155" stroke-width="0.9" stroke-linecap="round" stroke-linejoin="round" opacity="0.62" />
  <text x="164" y="130" fill="#1e293b" font-family="Virgil, Comic Sans MS, Pretendard, Apple SD Gothic Neo, Noto Sans CJK KR, Arial, sans-serif" font-size="15" font-weight="500" text-anchor="middle" opacity="1"><tspan x="164" dy="0">직접 시연 필수</tspan></text>
  <path d="M 62.025979932287235 164.03926150131488 L 264.83426583496254 164.8209842659349 L 263.45683552980347 209.47011709883114 L 62.47762653692104 210.4643449678934 Z" fill="#ffffff" stroke="none" opacity="0.9" filter="url(#fillRoughen)" />
  <path d="M 65.3615071712205 167.3372878394642 L 265.5000647464767 165.52428407823302 L 262.2012063673002 208.17698703554387 L 64.53991287216542 212.5641322039217 Z" fill="none" stroke="#64748b" stroke-width="1.15" stroke-linecap="round" stroke-linejoin="round" opacity="0.82" filter="url(#roughen)" />
  <path d="M 61.03850279365166 163.05647197527728 L 265.65132043276714 165.63335125114148 L 263.78625693039186 209.80422611201746 L 61.648072757466714 209.63010357584108 Z" fill="none" stroke="#64748b" stroke-width="0.9" stroke-linecap="round" stroke-linejoin="round" opacity="0.62" />
  <text x="164" y="185" fill="#1e293b" font-family="Virgil, Comic Sans MS, Pretendard, Apple SD Gothic Neo, Noto Sans CJK KR, Arial, sans-serif" font-size="10" font-weight="500" text-anchor="middle" opacity="1"><tspan x="164" dy="0">SME JBG-104 히어로 완주</tspan></text>
  <path d="M 62.25701248314162 232.27029405216925 L 266.1882255207487 234.17494395172105 L 264.8097003233409 278.82298189236855 L 62.707564195526665 278.69428262649905 Z" fill="#ffffff" stroke="none" opacity="0.9" filter="url(#fillRoughen)" />
  <path d="M 62.777000053105176 232.7527807213489 L 267.4553762800888 235.47959561184504 L 263.7671609527588 277.7429416210025 L 64.44553717974236 280.46975651149864 Z" fill="none" stroke="#64748b" stroke-width="1.15" stroke-linecap="round" stroke-linejoin="round" opacity="0.82" filter="url(#roughen)" />
  <path d="M 64.25511384288667 234.2730830245123 L 263.03618402791585 231.01821484629022 L 265.5045075516227 279.5224767332483 L 63.017166942478426 278.9991977608528 Z" fill="none" stroke="#64748b" stroke-width="0.9" stroke-linecap="round" stroke-linejoin="round" opacity="0.62" />
  <text x="164" y="253" fill="#1e293b" font-family="Virgil, Comic Sans MS, Pretendard, Apple SD Gothic Neo, Noto Sans CJK KR, Arial, sans-serif" font-size="10" font-weight="500" text-anchor="middle" opacity="1"><tspan x="164" dy="0">피싱 보조·전세 optional</tspan></text>
  <path d="M 61.98224874070898 299.99553030973664 L 265.00295807754225 300.9896765085146 L 263.41099622401197 345.4242777930396 L 64.46716284047979 348.45388127145213 Z" fill="#ffffff" stroke="none" opacity="0.9" filter="url(#fillRoughen)" />
  <path d="M 65.1249932210485 303.1007738892922 L 265.6510601044053 301.6752794361616 L 261.93483231995134 343.91061298819506 L 60.59168270618927 344.61590203794555 Z" fill="none" stroke="#64748b" stroke-width="1.15" stroke-linecap="round" stroke-linejoin="round" opacity="0.82" filter="url(#roughen)" />
  <path d="M 61.19987018455283 299.21783936617845 L 266.0806716283738 302.0627024467482 L 263.9504764758168 345.96844565744243 L 64.56329411493225 348.54532493330663 Z" fill="none" stroke="#64748b" stroke-width="0.9" stroke-linecap="round" stroke-linejoin="round" opacity="0.62" />
  <text x="164" y="321" fill="#1e293b" font-family="Virgil, Comic Sans MS, Pretendard, Apple SD Gothic Neo, Noto Sans CJK KR, Arial, sans-serif" font-size="10" font-weight="500" text-anchor="middle" opacity="1"><tspan x="164" dy="0">발표자 장비에서 실행</tspan></text>
  <path d="M 315.1046917048294 95.09141013580174 L 554.5734786680139 96.58676023704157 L 552.5509089723813 404.5376274033537 L 316.0196959355659 406.03297750459353 Z" fill="#fef3c7" stroke="none" opacity="0.9" filter="url(#fillRoughen)" />
  <path d="M 317.77009368777976 97.79431301953605 L 551.0440268029794 93.01980747122313 L 554.7621022274863 406.78632155924254 L 312.4235446507864 402.39932531903014 Z" fill="none" stroke="#334155" stroke-width="1.15" stroke-linecap="round" stroke-linejoin="round" opacity="0.82" filter="url(#roughen)" />
  <path d="M 314.3155727659854 94.29760358435978 L 554.0125065624976 96.03047574412322 L 551.5441830387907 403.52621385716515 L 313.68236721171587 403.7003363933415 Z" fill="none" stroke="#334155" stroke-width="0.9" stroke-linecap="round" stroke-linejoin="round" opacity="0.62" />
  <text x="434" y="130" fill="#1e293b" font-family="Virgil, Comic Sans MS, Pretendard, Apple SD Gothic Neo, Noto Sans CJK KR, Arial, sans-serif" font-size="15" font-weight="500" text-anchor="middle" opacity="1"><tspan x="434" dy="0">오프라인 안정성</tspan></text>
  <path d="M 332.1739813074176 164.16069973838998 L 533.3657770750266 163.37905864405423 L 534.7277640398656 210.714482470838 L 333.08805398647394 211.1013355555016 Z" fill="#ffffff" stroke="none" opacity="0.9" filter="url(#fillRoughen)" />
  <path d="M 330.7722960837354 162.79651541549165 L 536.2939198581953 166.26970052643904 L 533.7801386158634 209.8043579476197 L 331.59389038279045 209.56967105103416 Z" fill="none" stroke="#64748b" stroke-width="1.15" stroke-linecap="round" stroke-linejoin="round" opacity="0.82" filter="url(#roughen)" />
  <path d="M 335.06077058905754 167.0428014074319 L 535.6797004029573 165.69766958458294 L 533.2321603151812 209.21419113355554 L 334.4512006252425 212.4691698068681 Z" fill="none" stroke="#64748b" stroke-width="0.9" stroke-linecap="round" stroke-linejoin="round" opacity="0.62" />
  <text x="434" y="185" fill="#1e293b" font-family="Virgil, Comic Sans MS, Pretendard, Apple SD Gothic Neo, Noto Sans CJK KR, Arial, sans-serif" font-size="10" font-weight="500" text-anchor="middle" opacity="1"><tspan x="434" dy="0">정적 MVP도 현장 실행 가능</tspan></text>
  <path d="M 332.8453329770233 232.83205140799564 L 536.1160449541211 234.12932652314876 L 534.2916319148595 278.27835034583194 L 332.39376804267374 278.4070496117014 Z" fill="#ffffff" stroke="none" opacity="0.9" filter="url(#fillRoughen)" />
  <path d="M 335.68973403717155 235.7139533689278 L 533.3511764604717 231.32695712871546 L 536.6781962249378 280.702415556694 L 334.0512059358766 280.02698660412034 Z" fill="none" stroke="#64748b" stroke-width="1.15" stroke-linecap="round" stroke-linejoin="round" opacity="0.82" filter="url(#roughen)" />
  <path d="M 333.5750437079638 233.55707452633817 L 532.9844908295862 231.0024600112118 L 534.8259187415069 278.80794955988137 L 334.81310110346254 280.8310702850882 Z" fill="none" stroke="#64748b" stroke-width="0.9" stroke-linecap="round" stroke-linejoin="round" opacity="0.62" />
  <text x="434" y="253" fill="#1e293b" font-family="Virgil, Comic Sans MS, Pretendard, Apple SD Gothic Neo, Noto Sans CJK KR, Arial, sans-serif" font-size="10" font-weight="500" text-anchor="middle" opacity="1"><tspan x="434" dy="0">노트북·충전기·어댑터 준비</tspan></text>
  <path d="M 334.3386170729153 302.3253355038877 L 535.317907736082 301.3311893051097 L 533.4923998045717 345.4791182355441 L 333.8716087982458 347.88489036727344 Z" fill="#ffffff" stroke="none" opacity="0.9" filter="url(#fillRoughen)" />
  <path d="M 330.9348163059528 298.95903563770906 L 536.8477935967845 302.82357426502824 L 533.9765120716944 346.00073140345063 L 335.468126820812 349.44390748905573 Z" fill="none" stroke="#64748b" stroke-width="1.15" stroke-linecap="round" stroke-linejoin="round" opacity="0.82" filter="url(#roughen)" />
  <path d="M 332.77180605006214 300.7538368684365 L 533.678242769972 299.69621195159766 L 535.5433062723473 347.5253370907217 L 334.00849261584426 348.0264617974699 Z" fill="none" stroke="#64748b" stroke-width="0.9" stroke-linecap="round" stroke-linejoin="round" opacity="0.62" />
  <text x="434" y="321" fill="#1e293b" font-family="Virgil, Comic Sans MS, Pretendard, Apple SD Gothic Neo, Noto Sans CJK KR, Arial, sans-serif" font-size="10" font-weight="500" text-anchor="middle" opacity="1"><tspan x="434" dy="0">네트워크 차단 상태 테스트</tspan></text>
  <path d="M 583.4786086757617 93.46532710673412 L 822.9473956389463 94.96067720797394 L 824.3249076143896 406.311626045362 L 584.3936945767825 404.40697614581023 Z" fill="#dbeafe" stroke="none" opacity="0.9" filter="url(#fillRoughen)" />
  <path d="M 586.7490685965049 96.77328792826117 L 820.0230017117045 91.99878237994825 L 823.7412260643769 405.7654453961331 L 587.5726594637783 407.548440132022 Z" fill="none" stroke="#334155" stroke-width="1.15" stroke-linecap="round" stroke-linejoin="round" opacity="0.82" filter="url(#roughen)" />
  <path d="M 586.7627442329803 96.74477505135461 L 821.8596780284214 93.87764721004703 L 824.013508771433 405.99553958980727 L 586.151692944358 406.1696621259837 Z" fill="none" stroke="#334155" stroke-width="0.9" stroke-linecap="round" stroke-linejoin="round" opacity="0.62" />
  <text x="704" y="130" fill="#1e293b" font-family="Virgil, Comic Sans MS, Pretendard, Apple SD Gothic Neo, Noto Sans CJK KR, Arial, sans-serif" font-size="15" font-weight="500" text-anchor="middle" opacity="1"><tspan x="704" dy="0">산출물 정합</tspan></text>
  <path d="M 601.4473032362171 163.4605848052447 L 804.4680942433346 164.454812674307 L 806.2925072825961 212.30578885162384 L 603.9322173359878 211.91893576696026 Z" fill="#ffffff" stroke="none" opacity="0.9" filter="url(#fillRoughen)" />
  <path d="M 606.0015229193265 167.97730358757016 L 806.5275898026832 166.5518091344395 L 802.8413710435716 208.8171517118153 L 601.4683613326326 209.49258066438898 Z" fill="none" stroke="#64748b" stroke-width="1.15" stroke-linecap="round" stroke-linejoin="round" opacity="0.82" filter="url(#roughen)" />
  <path d="M 603.9228972461128 165.94086642773843 L 804.2260739446912 164.20810476306548 L 806.6957682981146 212.71373747974022 L 602.6863211754212 210.66835199379557 Z" fill="none" stroke="#64748b" stroke-width="0.9" stroke-linecap="round" stroke-linejoin="round" opacity="0.62" />
  <text x="704" y="185" fill="#1e293b" font-family="Virgil, Comic Sans MS, Pretendard, Apple SD Gothic Neo, Noto Sans CJK KR, Arial, sans-serif" font-size="10" font-weight="500" text-anchor="middle" opacity="1"><tspan x="704" dy="0">간트·스토리보드·체크리스트 동기화</tspan></text>
  <path d="M 603.454172308127 233.4674538771546 L 804.1999168933136 232.186635324286 L 806.0089682625395 280.02224983156714 L 602.5401812993549 278.5268997303273 Z" fill="#ffffff" stroke="none" opacity="0.9" filter="url(#fillRoughen)" />
  <path d="M 602.6866405968058 232.66242126504946 L 807.0036723327598 235.02789166451615 L 803.6768014964593 277.65258216470306 L 601.8630497295323 277.88726906128863 Z" fill="none" stroke="#64748b" stroke-width="1.15" stroke-linecap="round" stroke-linejoin="round" opacity="0.82" filter="url(#roughen)" />
  <path d="M 603.059095434928 233.07706461655374 L 806.1526587150182 234.1346895333926 L 804.2890765374501 278.30704571907575 L 603.6700362284598 279.6520670468342 Z" fill="none" stroke="#64748b" stroke-width="0.9" stroke-linecap="round" stroke-linejoin="round" opacity="0.62" />
  <text x="704" y="253" fill="#1e293b" font-family="Virgil, Comic Sans MS, Pretendard, Apple SD Gothic Neo, Noto Sans CJK KR, Arial, sans-serif" font-size="10" font-weight="500" text-anchor="middle" opacity="1"><tspan x="704" dy="0">변경 일자·대상·내용·사유 기록</tspan></text>
  <path d="M 602.0890148195413 300.1022963885689 L 804.8973007222165 300.88401915318894 L 803.536326979342 345.54960854836963 L 602.540661424175 346.52737985514744 Z" fill="#ffffff" stroke="none" opacity="0.9" filter="url(#fillRoughen)" />
  <path d="M 604.3999592035776 302.3757398718213 L 804.5385167788338 300.5627361105901 L 807.4398073292663 349.41558799751 L 603.5783649045225 347.6025842362788 Z" fill="none" stroke="#64748b" stroke-width="1.15" stroke-linecap="round" stroke-linejoin="round" opacity="0.82" filter="url(#roughen)" />
  <path d="M 604.527570408915 302.5455395905407 L 804.5181232862217 300.50015410459605 L 807.2754350407457 349.2934042223714 L 605.1371403727301 349.1191711911045 Z" fill="none" stroke="#64748b" stroke-width="0.9" stroke-linecap="round" stroke-linejoin="round" opacity="0.62" />
  <text x="704" y="321" fill="#1e293b" font-family="Virgil, Comic Sans MS, Pretendard, Apple SD Gothic Neo, Noto Sans CJK KR, Arial, sans-serif" font-size="10" font-weight="500" text-anchor="middle" opacity="1"><tspan x="704" dy="0">제안서·명세서·시연 같은 서사</tspan></text>
  <path d="M 853.3035738950604 93.316855464088 L 1093.2347869326675 95.22150536363979 L 1091.8727999678283 403.886081536856 L 853.7706638400142 403.7573822709865 Z" fill="#dcfce7" stroke="none" opacity="0.9" filter="url(#fillRoughen)" />
  <path d="M 856.9701214261516 96.94590209439534 L 1091.478506677034 93.50272600879025 L 1093.9602823258053 405.93606299404894 L 852.4386585513453 402.46287788310156 Z" fill="none" stroke="#334155" stroke-width="1.15" stroke-linecap="round" stroke-linejoin="round" opacity="0.82" filter="url(#roughen)" />
  <path d="M 853.2822684089147 93.30023759054026 L 1092.663338595015 94.64536941338922 L 1095.1316621187216 407.1496313003473 L 856.6664757752247 406.6485065935991 Z" fill="none" stroke="#334155" stroke-width="0.9" stroke-linecap="round" stroke-linejoin="round" opacity="0.62" />
  <text x="974" y="130" fill="#1e293b" font-family="Virgil, Comic Sans MS, Pretendard, Apple SD Gothic Neo, Noto Sans CJK KR, Arial, sans-serif" font-size="15" font-weight="500" text-anchor="middle" opacity="1"><tspan x="974" dy="0">리스크 방어</tspan></text>
  <path d="M 871.5113637517699 163.5246453207975 L 1074.5321547588874 164.51887318985976 L 1076.356567798149 212.3698493671766 L 873.996359521825 211.98307795279732 Z" fill="#ffffff" stroke="none" opacity="0.9" filter="url(#fillRoughen)" />
  <path d="M 872.8197842331416 164.79556490138535 L 1073.346000044664 163.37021937642018 L 1075.8296233334881 211.80540400173174 L 874.4866226478914 212.51084197964772 Z" fill="none" stroke="#64748b" stroke-width="1.15" stroke-linecap="round" stroke-linejoin="round" opacity="0.82" filter="url(#roughen)" />
  <path d="M 873.3330282619766 165.35099744360218 L 1073.6360944654643 163.61812528383874 L 1076.1058993139784 212.123868495604 L 872.0963416961945 210.07837251456883 Z" fill="none" stroke="#64748b" stroke-width="0.9" stroke-linecap="round" stroke-linejoin="round" opacity="0.62" />
  <text x="974" y="185" fill="#1e293b" font-family="Virgil, Comic Sans MS, Pretendard, Apple SD Gothic Neo, Noto Sans CJK KR, Arial, sans-serif" font-size="10" font-weight="500" text-anchor="middle" opacity="1"><tspan x="974" dy="0">PII 비반출·승인 전 행동 차단</tspan></text>
  <path d="M 873.2410957452238 233.22781417619618 L 1074.2203047381063 232.23358630713392 L 1075.8112533696722 279.7979718006444 L 872.7905440328387 278.80382560186644 Z" fill="#ffffff" stroke="none" opacity="0.9" filter="url(#fillRoughen)" />
  <path d="M 874.8578312740098 234.882050605766 L 1074.5406506098902 232.51643127813387 L 1077.8693690862435 281.8935884179998 L 873.19099285926 279.16677352750366 Z" fill="none" stroke="#64748b" stroke-width="1.15" stroke-linecap="round" stroke-linejoin="round" opacity="0.82" filter="url(#roughen)" />
  <path d="M 873.1551286332904 233.1371594516647 L 1074.0615653532002 232.07953453482583 L 1075.904253599747 279.88628441812153 L 874.3917047039819 280.40967388560756 Z" fill="none" stroke="#64748b" stroke-width="0.9" stroke-linecap="round" stroke-linejoin="round" opacity="0.62" />
  <text x="974" y="253" fill="#1e293b" font-family="Virgil, Comic Sans MS, Pretendard, Apple SD Gothic Neo, Noto Sans CJK KR, Arial, sans-serif" font-size="10" font-weight="500" text-anchor="middle" opacity="1"><tspan x="974" dy="0">정적 MVP→API 승격은 계획/범위 분리</tspan></text>
  <path d="M 874.556583135076 302.54330156604834 L 1074.4108385490977 300.42412011812536 L 1076.0028820729124 347.9896005038846 L 874.1050182007265 348.1182997697541 Z" fill="#ffffff" stroke="none" opacity="0.9" filter="url(#fillRoughen)" />
  <path d="M 870.4625555860257 298.486774917782 L 1074.323849082604 300.2996297508477 L 1077.65086884707 349.6750881788263 L 874.9938695326666 348.96965020091034 Z" fill="none" stroke="#64748b" stroke-width="1.15" stroke-linecap="round" stroke-linejoin="round" opacity="0.82" filter="url(#roughen)" />
  <path d="M 872.2241159598632 300.20614677823755 L 1076.2112983218187 302.2292675034444 L 1073.452615737578 345.43464655595244 L 873.4620628602714 347.48003204189706 Z" fill="none" stroke="#64748b" stroke-width="0.9" stroke-linecap="round" stroke-linejoin="round" opacity="0.62" />
  <text x="974" y="321" fill="#1e293b" font-family="Virgil, Comic Sans MS, Pretendard, Apple SD Gothic Neo, Noto Sans CJK KR, Arial, sans-serif" font-size="10" font-weight="500" text-anchor="middle" opacity="1"><tspan x="974" dy="0">폴백 영상/스크립트 준비</tspan></text>
  <path d="M 44.93881523624035 454.92553366721273 L 1092.130529333565 454.1438109025927 L 1093.5089728606886 547.4956912916609 L 45.852806245012395 547.86608781404 Z" fill="#f8fafc" stroke="none" opacity="0.9" filter="url(#fillRoughen)" />
  <path d="M 42.72299462482869 452.747213956585 L 1094.2446183992886 456.22039906753236 L 1091.7609951104646 545.7852144422208 L 43.57459794922606 545.5503786174697 Z" fill="none" stroke="#94a3b8" stroke-width="1.15" stroke-linecap="round" stroke-linejoin="round" opacity="0.82" filter="url(#roughen)" />
  <path d="M 42.8439826761242 452.82601349449857 L 1094.062912491095 456.08088167272064 L 1091.5932181376716 545.5752489560459 L 46.81214795264233 548.830117134268 Z" fill="none" stroke="#94a3b8" stroke-width="0.9" stroke-linecap="round" stroke-linejoin="round" opacity="0.62" />
  <text x="65" y="485" fill="#1e293b" font-family="Virgil, Comic Sans MS, Pretendard, Apple SD Gothic Neo, Noto Sans CJK KR, Arial, sans-serif" font-size="14" font-weight="500" text-anchor="start" opacity="1"><tspan x="65" dy="0">발표 운영 원칙: SME 히어로 작동 화면을 먼저 보여주고, 정적 MVP와 API 승격 계획은 구분해 말한다. 폴백은 “현장 안정성 설계”로 설명한다.</tspan></text>
  <text x="65" y="515" fill="#475569" font-family="Virgil, Comic Sans MS, Pretendard, Apple SD Gothic Neo, Noto Sans CJK KR, Arial, sans-serif" font-size="12" font-weight="500" text-anchor="start" opacity="1"><tspan x="65" dy="0">연결 심사항목: 4.1 산출물 일관성 · 4.2 동작 MVP · 4.5 형식 준수 · 5.5 운영 리스크 관리</tspan></text>
</svg>
