<?xml version="1.0" encoding="UTF-8"?>
<svg xmlns="http://www.w3.org/2000/svg" width="1331" height="676" viewBox="0 -22 1331 676" role="img" aria-label="judge-criteria-coverage-map">
  <defs>
    <marker id="arrowhead" markerWidth="10" markerHeight="10" refX="8" refY="3" orient="auto" markerUnits="strokeWidth">
      <path d="M0,0 L0,6 L9,3 z" fill="#1e293b" />
    </marker>
    <marker id="arrowhead-start" markerWidth="10" markerHeight="10" refX="1" refY="3" orient="auto" markerUnits="strokeWidth">
      <path d="M9,0 L9,6 L0,3 z" fill="#1e293b" />
    </marker>
    <filter id="roughen" x="-4%" y="-4%" width="108%" height="108%">
      <feTurbulence type="fractalNoise" baseFrequency="0.018" numOctaves="1" seed="11" result="noise" />
      <feDisplacementMap in="SourceGraphic" in2="noise" scale="0.65" />
    </filter>
    <filter id="fillRoughen" x="-2%" y="-2%" width="104%" height="104%">
      <feTurbulence type="fractalNoise" baseFrequency="0.012" numOctaves="1" seed="7" result="noise" />
      <feDisplacementMap in="SourceGraphic" in2="noise" scale="0.35" />
    </filter>
  </defs>
  <rect x="0" y="-22" width="1331" height="676" fill="#ffffff" />
  <text x="40" y="40" fill="#1e293b" font-family="Virgil, Comic Sans MS, Pretendard, Apple SD Gothic Neo, Noto Sans CJK KR, Arial, sans-serif" font-size="22" font-weight="700" text-anchor="start" opacity="1"><tspan x="40" dy="0">심사기준 25항목 커버리지 맵</tspan></text>
  <text x="42" y="64" fill="#1e293b" font-family="Virgil, Comic Sans MS, Pretendard, Apple SD Gothic Neo, Noto Sans CJK KR, Arial, sans-serif" font-size="12" font-weight="500" text-anchor="start" opacity="1"><tspan x="42" dy="0">공식 5개 평가축을 산출물·검증·시연 증거와 1:1 연결하는 발표 백업 보드</tspan></text>
  <path d="M 45.945382925738905 95.95866449476654 L 270.67475261892537 94.66147104989771 L 272.5001788801514 501.51346044917904 L 45.031391916966854 500.0181103479392 Z" fill="#dbeafe" stroke="none" opacity="0.9" filter="url(#fillRoughen)" />
  <path d="M 44.845644383212935 94.82142505145664 L 273.1328160219902 97.15703535374651 L 269.835954211032 498.8117348792757 L 44.02220244410499 499.0464217758613 Z" fill="none" stroke="#334155" stroke-width="1.15" stroke-linecap="round" stroke-linejoin="round" opacity="0.82" filter="url(#roughen)" />
  <path d="M 44.420540408352515 94.43850958997815 L 271.5141036884426 95.496134506817 L 269.6726757765218 498.69064495814746 L 45.03148120188422 500.0135120202586 Z" fill="none" stroke="#334155" stroke-width="0.9" stroke-linecap="round" stroke-linejoin="round" opacity="0.62" />
  <text x="158" y="123" fill="#1e293b" font-family="Virgil, Comic Sans MS, Pretendard, Apple SD Gothic Neo, Noto Sans CJK KR, Arial, sans-serif" font-size="14" font-weight="500" text-anchor="middle" opacity="1"><tspan x="158" dy="0">1. 주제적합성·문제정의</tspan></text>
  <path d="M 60.025979932287235 160.03926150131488 L 254.83426583496254 160.8209842659349 L 253.4568355298035 191.47011709883114 L 60.47762653692104 192.4643449678934 Z" fill="#ffffff" stroke="none" opacity="0.9" filter="url(#fillRoughen)" />
  <path d="M 63.361507171220495 163.3372878394642 L 255.50006474647674 161.52428407823302 L 252.20120636730016 190.17698703554387 L 62.539912872165424 194.5641322039217 Z" fill="none" stroke="#94a3b8" stroke-width="1.15" stroke-linecap="round" stroke-linejoin="round" opacity="0.82" filter="url(#roughen)" />
  <path d="M 59.03850279365166 159.05647197527728 L 255.6513204327671 161.63335125114148 L 253.78625693039183 191.80422611201746 L 59.648072757466714 191.63010357584108 Z" fill="none" stroke="#94a3b8" stroke-width="0.9" stroke-linecap="round" stroke-linejoin="round" opacity="0.62" />
  <text x="69" y="178" fill="#1e293b" font-family="Virgil, Comic Sans MS, Pretendard, Apple SD Gothic Neo, Noto Sans CJK KR, Arial, sans-serif" font-size="9" font-weight="500" text-anchor="start" opacity="1"><tspan x="69" dy="0">1.1 자유주제 취지</tspan></text>
  <path d="M 60.25701248314162 205.27029405216925 L 256.1882255207487 207.17494395172105 L 254.80970032334088 237.82298189236852 L 60.707564195526665 237.69428262649902 Z" fill="#ffffff" stroke="none" opacity="0.9" filter="url(#fillRoughen)" />
  <path d="M 60.777000053105176 205.7527807213489 L 257.4553762800888 208.47959561184504 L 253.7671609527588 236.7429416210025 L 62.44553717974237 239.46975651149864 Z" fill="none" stroke="#94a3b8" stroke-width="1.15" stroke-linecap="round" stroke-linejoin="round" opacity="0.82" filter="url(#roughen)" />
  <path d="M 62.255113842886665 207.2730830245123 L 253.03618402791585 204.01821484629022 L 255.5045075516227 238.52247673324834 L 61.017166942478426 237.9991977608528 Z" fill="none" stroke="#94a3b8" stroke-width="0.9" stroke-linecap="round" stroke-linejoin="round" opacity="0.62" />
  <text x="69" y="223" fill="#1e293b" font-family="Virgil, Comic Sans MS, Pretendard, Apple SD Gothic Neo, Noto Sans CJK KR, Arial, sans-serif" font-size="9" font-weight="500" text-anchor="start" opacity="1"><tspan x="69" dy="0">1.2 RM·상황 정의</tspan></text>
  <path d="M 59.98224874070898 249.9955303097366 L 255.00295807754225 250.9896765085146 L 253.410996224012 281.4242777930396 L 62.46716284047979 284.45388127145213 Z" fill="#ffffff" stroke="none" opacity="0.9" filter="url(#fillRoughen)" />
  <path d="M 63.1249932210485 253.1007738892922 L 255.65106010440527 251.67527943616156 L 251.93483231995134 279.91061298819506 L 58.59168270618927 280.61590203794555 Z" fill="none" stroke="#94a3b8" stroke-width="1.15" stroke-linecap="round" stroke-linejoin="round" opacity="0.82" filter="url(#roughen)" />
  <path d="M 59.19987018455283 249.21783936617845 L 256.0806716283738 252.0627024467482 L 253.9504764758168 281.96844565744243 L 62.563294114932255 284.54532493330663 Z" fill="none" stroke="#94a3b8" stroke-width="0.9" stroke-linecap="round" stroke-linejoin="round" opacity="0.62" />
  <text x="69" y="268" fill="#1e293b" font-family="Virgil, Comic Sans MS, Pretendard, Apple SD Gothic Neo, Noto Sans CJK KR, Arial, sans-serif" font-size="9" font-weight="500" text-anchor="start" opacity="1"><tspan x="69" dy="0">1.3 Pain·병목·리스크</tspan></text>
  <path d="M 61.104691704829385 296.09141013580177 L 256.57347866801393 297.5867602370416 L 254.55090897238136 327.5376274033537 L 62.019695935565906 329.03297750459353 Z" fill="#ffffff" stroke="none" opacity="0.9" filter="url(#fillRoughen)" />
  <path d="M 63.770093687779756 298.79431301953605 L 253.0440268029794 294.01980747122315 L 256.76210222748625 329.78632155924254 L 58.423544650786454 325.39932531903014 Z" fill="none" stroke="#94a3b8" stroke-width="1.15" stroke-linecap="round" stroke-linejoin="round" opacity="0.82" filter="url(#roughen)" />
  <path d="M 60.31557276598541 295.29760358435976 L 256.0125065624976 297.03047574412324 L 253.54418303879075 326.52621385716515 L 59.68236721171587 326.7003363933415 Z" fill="none" stroke="#94a3b8" stroke-width="0.9" stroke-linecap="round" stroke-linejoin="round" opacity="0.62" />
  <text x="69" y="313" fill="#1e293b" font-family="Virgil, Comic Sans MS, Pretendard, Apple SD Gothic Neo, Noto Sans CJK KR, Arial, sans-serif" font-size="9" font-weight="500" text-anchor="start" opacity="1"><tspan x="69" dy="0">1.4 JB 관점 중요도</tspan></text>
  <path d="M 60.17398130741761 340.16069973838995 L 253.36577707502659 339.3790586440542 L 254.72776403986563 372.714482470838 L 61.08805398647395 373.1013355555016 Z" fill="#ffffff" stroke="none" opacity="0.9" filter="url(#fillRoughen)" />
  <path d="M 58.77229608373537 338.7965154154917 L 256.29391985819535 342.26970052643907 L 253.78013861586342 371.80435794761974 L 59.59389038279045 371.56967105103416 Z" fill="none" stroke="#94a3b8" stroke-width="1.15" stroke-linecap="round" stroke-linejoin="round" opacity="0.82" filter="url(#roughen)" />
  <path d="M 63.06077058905753 343.0428014074319 L 255.6797004029573 341.69766958458297 L 253.23216031518118 371.2141911335555 L 62.45120062524248 374.46916980686814 Z" fill="none" stroke="#94a3b8" stroke-width="0.9" stroke-linecap="round" stroke-linejoin="round" opacity="0.62" />
  <text x="69" y="358" fill="#1e293b" font-family="Virgil, Comic Sans MS, Pretendard, Apple SD Gothic Neo, Noto Sans CJK KR, Arial, sans-serif" font-size="9" font-weight="500" text-anchor="start" opacity="1"><tspan x="69" dy="0">1.5 서비스 과제화</tspan></text>
  <path d="M 60.84533297702328 410.83205140799566 L 256.11604495412115 412.1293265231488 L 254.29163191485955 470.27835034583194 L 60.39376804267377 470.4070496117014 Z" fill="#f8fafc" stroke="none" opacity="0.9" filter="url(#fillRoughen)" />
  <path d="M 63.68973403717152 413.71395336892783 L 253.35117646047175 409.32695712871543 L 256.6781962249377 472.702415556694 L 62.05120593587663 472.02698660412034 Z" fill="none" stroke="#64748b" stroke-width="1.15" stroke-linecap="round" stroke-linejoin="round" opacity="0.82" filter="url(#roughen)" />
  <path d="M 61.575043707963786 411.55707452633817 L 252.98449082958618 409.0024600112118 L 254.82591874150697 470.80794955988137 L 62.813101103462536 472.8310702850882 Z" fill="none" stroke="#64748b" stroke-width="0.9" stroke-linecap="round" stroke-linejoin="round" opacity="0.62" />
  <text x="158" y="433" fill="#1e293b" font-family="Virgil, Comic Sans MS, Pretendard, Apple SD Gothic Neo, Noto Sans CJK KR, Arial, sans-serif" font-size="10" font-weight="500" text-anchor="middle" opacity="1"><tspan x="158" dy="0">주요 증거</tspan></text>
  <text x="158" y="453" fill="#1e293b" font-family="Virgil, Comic Sans MS, Pretendard, Apple SD Gothic Neo, Noto Sans CJK KR, Arial, sans-serif" font-size="10" font-weight="500" text-anchor="middle" opacity="1"><tspan x="158" dy="0">문제정의·리서치·SCQA</tspan></text>
  <path d="M 298.78618379609804 93.79946536512567 L 525.8069748032156 94.79369323418794 L 527.6313878424771 501.6446694115048 L 301.27117956615314 501.2578979971255 Z" fill="#dcfce7" stroke="none" opacity="0.9" filter="url(#fillRoughen)" />
  <path d="M 299.2113773275426 94.18715799578632 L 523.7374442108994 92.76166354265568 L 526.2510765250659 500.22685719330957 L 300.87806681412695 500.90228614588324 Z" fill="none" stroke="#334155" stroke-width="1.15" stroke-linecap="round" stroke-linejoin="round" opacity="0.82" filter="url(#roughen)" />
  <path d="M 298.1108537425312 93.12882292415686 L 527.0139199470901 95.99595076546444 L 524.883724794533 498.9016939761587 L 301.47427767291066 501.45630849128503 Z" fill="none" stroke="#334155" stroke-width="0.9" stroke-linecap="round" stroke-linejoin="round" opacity="0.62" />
  <text x="413" y="123" fill="#1e293b" font-family="Virgil, Comic Sans MS, Pretendard, Apple SD Gothic Neo, Noto Sans CJK KR, Arial, sans-serif" font-size="14" font-weight="500" text-anchor="middle" opacity="1"><tspan x="413" dy="0">2. 금융업무·고객가치</tspan></text>
  <path d="M 316.57346793358994 161.5601863645623 L 508.64225489598283 159.6555364650105 L 510.0196852011419 193.00640363211426 L 317.4884721643265 194.5017537333541 Z" fill="#ffffff" stroke="none" opacity="0.9" filter="url(#fillRoughen)" />
  <path d="M 313.25731003730493 158.28152936906125 L 508.7312431539482 159.70702382219187 L 512.449318578455 195.47353791021126 L 314.0807519764129 191.0565326446566 Z" fill="none" stroke="#94a3b8" stroke-width="1.15" stroke-linecap="round" stroke-linejoin="round" opacity="0.82" filter="url(#roughen)" />
  <path d="M 314.4300386778382 159.41206949621255 L 510.12697247435034 161.144941655976 L 512.2809137124524 195.26294453082676 L 313.8190978843065 190.8370670659321 Z" fill="none" stroke="#94a3b8" stroke-width="0.9" stroke-linecap="round" stroke-linejoin="round" opacity="0.62" />
  <text x="324" y="178" fill="#1e293b" font-family="Virgil, Comic Sans MS, Pretendard, Apple SD Gothic Neo, Noto Sans CJK KR, Arial, sans-serif" font-size="9" font-weight="500" text-anchor="start" opacity="1"><tspan x="324" dy="0">2.1 JB 사업 연결</tspan></text>
  <path d="M 315.51001464841187 205.49673307938426 L 508.7017287457366 204.7150103147642 L 510.06371571057565 238.05043414154798 L 316.42400565718395 238.43728722621157 Z" fill="#ffffff" stroke="none" opacity="0.9" filter="url(#fillRoughen)" />
  <path d="M 314.2499182147323 204.2741375464886 L 511.74153296385 207.71731363209366 L 509.2579096750258 237.2821290067821 L 315.07151251378735 237.0472931820311 Z" fill="none" stroke="#94a3b8" stroke-width="1.15" stroke-linecap="round" stroke-linejoin="round" opacity="0.82" filter="url(#roughen)" />
  <path d="M 314.21266122402454 204.19469204239888 L 511.43159103899535 207.44956022062095 L 508.9841614463097 236.96619226468405 L 318.20309126128046 240.22106044290612 Z" fill="none" stroke="#94a3b8" stroke-width="0.9" stroke-linecap="round" stroke-linejoin="round" opacity="0.62" />
  <text x="324" y="223" fill="#1e293b" font-family="Virgil, Comic Sans MS, Pretendard, Apple SD Gothic Neo, Noto Sans CJK KR, Arial, sans-serif" font-size="9" font-weight="500" text-anchor="start" opacity="1"><tspan x="324" dy="0">2.2 업무/고객 여정</tspan></text>
  <path d="M 317.66701741357497 252.65373584454733 L 509.5211911573124 250.53447272634006 L 511.09677811884245 284.0834965498148 L 317.19891424665667 284.2121958156843 Z" fill="#ffffff" stroke="none" opacity="0.9" filter="url(#fillRoughen)" />
  <path d="M 313.95947015058704 248.98368948234332 L 509.82076364716534 250.79654431540905 L 506.94778341018775 279.97200274194404 L 318.4907840972279 285.4665647654716 Z" fill="none" stroke="#94a3b8" stroke-width="1.15" stroke-linecap="round" stroke-linejoin="round" opacity="0.82" filter="url(#roughen)" />
  <path d="M 315.59279450776353 250.5748253261379 L 511.5799768697191 252.59794605134473 L 508.8435590462162 281.8255898645906 L 316.8307414081718 283.8487105897974 Z" fill="none" stroke="#94a3b8" stroke-width="0.9" stroke-linecap="round" stroke-linejoin="round" opacity="0.62" />
  <text x="324" y="268" fill="#1e293b" font-family="Virgil, Comic Sans MS, Pretendard, Apple SD Gothic Neo, Noto Sans CJK KR, Arial, sans-serif" font-size="9" font-weight="500" text-anchor="start" opacity="1"><tspan x="324" dy="0">2.3 가치·효율·리스크</tspan></text>
  <path d="M 315.72806391185804 295.7147823428304 L 508.7072729047405 294.7205544737681 L 510.28176497402177 328.26848340499413 L 315.2609739669042 327.27425553593184 Z" fill="#ffffff" stroke="none" opacity="0.9" filter="url(#fillRoughen)" />
  <path d="M 316.19167232813584 296.2158916598921 L 507.90450068935854 293.88028135760226 L 511.20321014036966 329.22742947212595 L 314.5248339133861 326.5006145816298 Z" fill="none" stroke="#94a3b8" stroke-width="1.15" stroke-linecap="round" stroke-linejoin="round" opacity="0.82" filter="url(#roughen)" />
  <path d="M 315.6754717673584 295.65750258573274 L 508.58190848726827 294.5998776688939 L 510.4247072289057 328.40673804728004 L 316.8898935724026 328.90786275402826 Z" fill="none" stroke="#94a3b8" stroke-width="0.9" stroke-linecap="round" stroke-linejoin="round" opacity="0.62" />
  <text x="324" y="313" fill="#1e293b" font-family="Virgil, Comic Sans MS, Pretendard, Apple SD Gothic Neo, Noto Sans CJK KR, Arial, sans-serif" font-size="9" font-weight="500" text-anchor="start" opacity="1"><tspan x="324" dy="0">2.4 규제·보안·내부통제</tspan></text>
  <path d="M 317.10352419610217 342.09024262707453 L 509.1723111584951 340.18559272752276 L 510.54974146365413 373.5364598946265 L 314.6185284260471 371.6318099950747 Z" fill="#ffffff" stroke="none" opacity="0.9" filter="url(#fillRoughen)" />
  <path d="M 316.36023927812005 341.38445860987633 L 511.83417239476324 342.80995306300696 L 509.352396745992 372.3766160777483 L 317.21383917073575 374.18961983897947 Z" fill="none" stroke="#94a3b8" stroke-width="1.15" stroke-linecap="round" stroke-linejoin="round" opacity="0.82" filter="url(#roughen)" />
  <path d="M 318.1277267646575 343.10975758303186 L 509.22466056009864 340.2426297417243 L 511.3562265423723 374.3382573607467 L 317.4944107152974 374.51237989692305 Z" fill="none" stroke="#94a3b8" stroke-width="0.9" stroke-linecap="round" stroke-linejoin="round" opacity="0.62" />
  <text x="324" y="358" fill="#1e293b" font-family="Virgil, Comic Sans MS, Pretendard, Apple SD Gothic Neo, Noto Sans CJK KR, Arial, sans-serif" font-size="9" font-weight="500" text-anchor="start" opacity="1"><tspan x="324" dy="0">2.5 AX·인재 취지</tspan></text>
  <path d="M 314.9381019796799 409.95138354870755 L 510.869315017287 411.8560334482594 L 509.4907898198792 470.5040713889068 L 315.38865369206496 470.3753721230373 Z" fill="#f8fafc" stroke="none" opacity="0.9" filter="url(#fillRoughen)" />
  <path d="M 315.46194048653405 410.43772115477776 L 512.1403167135176 413.1645360452739 L 508.4521013861876 469.42788205443134 L 317.1304776131712 472.1546969449275 Z" fill="none" stroke="#64748b" stroke-width="1.15" stroke-linecap="round" stroke-linejoin="round" opacity="0.82" filter="url(#roughen)" />
  <path d="M 317.0213599709145 412.0393291525401 L 507.80243015594374 408.7844609743181 L 510.27075367965057 471.2887228612762 L 315.7834130705063 470.76544388888067 Z" fill="none" stroke="#64748b" stroke-width="0.9" stroke-linecap="round" stroke-linejoin="round" opacity="0.62" />
  <text x="413" y="433" fill="#1e293b" font-family="Virgil, Comic Sans MS, Pretendard, Apple SD Gothic Neo, Noto Sans CJK KR, Arial, sans-serif" font-size="10" font-weight="500" text-anchor="middle" opacity="1"><tspan x="413" dy="0">주요 증거</tspan></text>
  <text x="413" y="453" fill="#1e293b" font-family="Virgil, Comic Sans MS, Pretendard, Apple SD Gothic Neo, Noto Sans CJK KR, Arial, sans-serif" font-size="10" font-weight="500" text-anchor="middle" opacity="1"><tspan x="413" dy="0">D3e/D3f·JB 정합맵</tspan></text>
  <path d="M 556.556583135076 96.54330156604836 L 780.4108385490978 94.42412011812537 L 782.0028820729123 500.9896005038846 L 556.1050182007265 501.1182997697541 Z" fill="#ede9fe" stroke="none" opacity="0.9" filter="url(#fillRoughen)" />
  <path d="M 552.4625555860257 92.486774917782 L 780.323849082604 94.29962975084773 L 783.65086884707 502.6750881788263 L 556.9938695326666 501.96965020091034 Z" fill="none" stroke="#334155" stroke-width="1.15" stroke-linecap="round" stroke-linejoin="round" opacity="0.82" filter="url(#roughen)" />
  <path d="M 554.2241159598632 94.20614677823758 L 782.2112983218187 96.2292675034444 L 779.4526157375781 498.43464655595244 L 555.4620628602714 500.48003204189706 Z" fill="none" stroke="#334155" stroke-width="0.9" stroke-linecap="round" stroke-linejoin="round" opacity="0.62" />
  <text x="668" y="123" fill="#1e293b" font-family="Virgil, Comic Sans MS, Pretendard, Apple SD Gothic Neo, Noto Sans CJK KR, Arial, sans-serif" font-size="14" font-weight="500" text-anchor="middle" opacity="1"><tspan x="668" dy="0">3. AI Agent 설계</tspan></text>
  <path d="M 570.9388152362403 160.9255336672127 L 764.130529333565 160.1438109025927 L 765.5089728606886 193.49569129166093 L 571.8528062450124 193.86608781404004 Z" fill="#ffffff" stroke="none" opacity="0.9" filter="url(#fillRoughen)" />
  <path d="M 568.7229946248286 158.74721395658497 L 766.2446183992887 162.22039906753236 L 763.7609951104645 191.7852144422208 L 569.574597949226 191.5503786174698 Z" fill="none" stroke="#94a3b8" stroke-width="1.15" stroke-linecap="round" stroke-linejoin="round" opacity="0.82" filter="url(#roughen)" />
  <path d="M 568.8439826761241 158.82601349449857 L 766.062912491095 162.08088167272064 L 763.5932181376716 191.5752489560459 L 572.8121479526424 194.83011713426797 Z" fill="none" stroke="#94a3b8" stroke-width="0.9" stroke-linecap="round" stroke-linejoin="round" opacity="0.62" />
  <text x="579" y="178" fill="#1e293b" font-family="Virgil, Comic Sans MS, Pretendard, Apple SD Gothic Neo, Noto Sans CJK KR, Arial, sans-serif" font-size="9" font-weight="500" text-anchor="start" opacity="1"><tspan x="579" dy="0">3.1 판단·행동·검증</tspan></text>
  <path d="M 569.3986814656059 204.38539989657826 L 764.8674684287904 205.8807499978181 L 766.228442171665 239.21516060263738 L 570.3136856963424 237.32696726537006 Z" fill="#ffffff" stroke="none" opacity="0.9" filter="url(#fillRoughen)" />
  <path d="M 572.0055220608846 207.0297413926408 L 767.4794551775277 208.45523584577143 L 764.9675215752487 237.99174090700498 L 572.8289639999924 239.80474466823617 Z" fill="none" stroke="#94a3b8" stroke-width="1.15" stroke-linecap="round" stroke-linejoin="round" opacity="0.82" filter="url(#roughen)" />
  <path d="M 571.4544446014228 206.43647541979712 L 767.1735326635823 208.19150184520788 L 764.7052091398754 237.6872399582498 L 570.8433933128006 237.86136249442617 Z" fill="none" stroke="#94a3b8" stroke-width="0.9" stroke-linecap="round" stroke-linejoin="round" opacity="0.62" />
  <text x="579" y="223" fill="#1e293b" font-family="Virgil, Comic Sans MS, Pretendard, Apple SD Gothic Neo, Noto Sans CJK KR, Arial, sans-serif" font-size="9" font-weight="500" text-anchor="start" opacity="1"><tspan x="579" dy="0">3.2 데이터→액션 흐름</tspan></text>
  <path d="M 570.7071978381852 250.69391626915754 L 763.686488501352 249.69977007037954 L 765.2774371329177 283.26415556389003 L 570.2566461258001 282.26992769482774 Z" fill="#ffffff" stroke="none" opacity="0.9" filter="url(#fillRoughen)" />
  <path d="M 569.9435411733676 249.96776050512395 L 767.8265094388571 253.80229010710082 L 764.955227913767 282.9794472455232 L 568.2768516867833 280.25263235502706 Z" fill="none" stroke="#94a3b8" stroke-width="1.15" stroke-linecap="round" stroke-linejoin="round" opacity="0.82" filter="url(#roughen)" />
  <path d="M 569.3297588802943 249.31178969866872 L 766.8361956012752 252.85416478290088 L 764.0789943418416 282.06102516021605 L 570.566334950986 282.5843041326116 Z" fill="none" stroke="#94a3b8" stroke-width="0.9" stroke-linecap="round" stroke-linejoin="round" opacity="0.62" />
  <text x="579" y="268" fill="#1e293b" font-family="Virgil, Comic Sans MS, Pretendard, Apple SD Gothic Neo, Noto Sans CJK KR, Arial, sans-serif" font-size="9" font-weight="500" text-anchor="start" opacity="1"><tspan x="579" dy="0">3.3 모델/RAG/Rule/멀티</tspan></text>
  <path d="M 571.6184251095909 296.6317066786186 L 764.133181584122 295.1199000150943 L 766.1711129497902 329.18439451881784 L 572.068976821976 329.0556952529484 Z" fill="#ffffff" stroke="none" opacity="0.9" filter="url(#fillRoughen)" />
  <path d="M 571.1491568375028 296.12493750574646 L 767.8275330644864 298.85175239624266 L 764.109308711814 327.0850893800578 L 572.8178428923054 329.8420622240617 Z" fill="none" stroke="#94a3b8" stroke-width="1.15" stroke-linecap="round" stroke-linejoin="round" opacity="0.82" filter="url(#roughen)" />
  <path d="M 570.0039287414644 295.02189792309 L 765.3849989275645 296.36702974593896 L 763.2533224502004 326.27129163182605 L 568.7659818410561 325.7480126594305 Z" fill="none" stroke="#94a3b8" stroke-width="0.9" stroke-linecap="round" stroke-linejoin="round" opacity="0.62" />
  <text x="579" y="313" fill="#1e293b" font-family="Virgil, Comic Sans MS, Pretendard, Apple SD Gothic Neo, Noto Sans CJK KR, Arial, sans-serif" font-size="9" font-weight="500" text-anchor="start" opacity="1"><tspan x="579" dy="0">3.4 구성도·구현가능</tspan></text>
  <path d="M 570.6315272379973 340.6448088070249 L 765.4232749081038 341.40999333907615 L 764.0623011652292 372.0755827342569 L 571.0830921723468 373.0698106033192 Z" fill="#ffffff" stroke="none" opacity="0.9" filter="url(#fillRoughen)" />
  <path d="M 571.6126896751841 341.58847034342784 L 763.7512472504403 339.77546658219666 L 766.6225287755306 374.5983094437742 L 570.7610863507867 372.785305682543 Z" fill="none" stroke="#94a3b8" stroke-width="1.15" stroke-linecap="round" stroke-linejoin="round" opacity="0.82" filter="url(#roughen)" />
  <path d="M 571.9212024496918 341.9391716313174 L 763.9340200877361 339.91605090611057 L 766.6913318422603 374.7093010238859 L 572.5531476693352 374.5351784877095 Z" fill="none" stroke="#94a3b8" stroke-width="0.9" stroke-linecap="round" stroke-linejoin="round" opacity="0.62" />
  <text x="579" y="358" fill="#1e293b" font-family="Virgil, Comic Sans MS, Pretendard, Apple SD Gothic Neo, Noto Sans CJK KR, Arial, sans-serif" font-size="9" font-weight="500" text-anchor="start" opacity="1"><tspan x="579" dy="0">3.5 API·라이선스 제약</tspan></text>
  <path d="M 569.7787098963928 409.79199146542044 L 765.9244544823711 411.9111729133435 L 764.3499624130898 470.36324398211747 L 572.2811754506969 472.26789388166924 Z" fill="#f8fafc" stroke="none" opacity="0.9" filter="url(#fillRoughen)" />
  <path d="M 571.483524768656 411.45930543689974 L 767.7706964074333 413.7949157391896 L 764.4736856683096 470.4494663365533 L 570.6600828295481 470.68430216130434 Z" fill="none" stroke="#64748b" stroke-width="1.15" stroke-linecap="round" stroke-linejoin="round" opacity="0.82" filter="url(#roughen)" />
  <path d="M 569.1007658924909 409.11873507411656 L 764.1943291725811 410.1763599909554 L 766.9530117568218 472.9709809384474 L 569.734081941851 469.7161127602253 Z" fill="none" stroke="#64748b" stroke-width="0.9" stroke-linecap="round" stroke-linejoin="round" opacity="0.62" />
  <text x="668" y="433" fill="#1e293b" font-family="Virgil, Comic Sans MS, Pretendard, Apple SD Gothic Neo, Noto Sans CJK KR, Arial, sans-serif" font-size="10" font-weight="500" text-anchor="middle" opacity="1"><tspan x="668" dy="0">주요 증거</tspan></text>
  <text x="668" y="453" fill="#1e293b" font-family="Virgil, Comic Sans MS, Pretendard, Apple SD Gothic Neo, Noto Sans CJK KR, Arial, sans-serif" font-size="10" font-weight="500" text-anchor="middle" opacity="1"><tspan x="668" dy="0">Agent-flow·기능명세·API 승격</tspan></text>
  <path d="M 810.2656270768879 95.25234550786027 L 1035.2448360697704 94.258117638798 L 1036.8358663716203 500.82258480259276 L 809.8150753645028 499.82835693353053 Z" fill="#fef3c7" stroke="none" opacity="0.9" filter="url(#fillRoughen)" />
  <path d="M 807.3659237866443 92.39014311840063 L 1037.2487431239683 96.22452379221203 L 1034.3776105270435 498.4018298587999 L 811.8992343015036 501.87501496974727 Z" fill="none" stroke="#334155" stroke-width="1.15" stroke-linecap="round" stroke-linejoin="round" opacity="0.82" filter="url(#roughen)" />
  <path d="M 811.4224230792192 96.40445389759365 L 1036.328859799129 95.3468289807548 L 1038.1716585407667 502.15368935914097 L 808.0589991488398 498.0769683304655 Z" fill="none" stroke="#334155" stroke-width="0.9" stroke-linecap="round" stroke-linejoin="round" opacity="0.62" />
  <text x="923" y="123" fill="#1e293b" font-family="Virgil, Comic Sans MS, Pretendard, Apple SD Gothic Neo, Noto Sans CJK KR, Arial, sans-serif" font-size="14" font-weight="500" text-anchor="middle" opacity="1"><tspan x="923" dy="0">4. MVP 완성도·검증</tspan></text>
  <path d="M 827.5785135165971 162.59179508562474 L 1018.9867994184808 159.97351784945315 L 1021.0258256763979 194.0391072454255 L 824.6466166827238 191.63333511369612 Z" fill="#ffffff" stroke="none" opacity="0.9" filter="url(#fillRoughen)" />
  <path d="M 824.387376917919 159.3631575861627 L 1022.7559435199611 163.78016285171736 L 1019.4270761154422 192.40285678368593 L 823.5656336906984 190.58985302245475 Z" fill="none" stroke="#94a3b8" stroke-width="1.15" stroke-linecap="round" stroke-linejoin="round" opacity="0.82" filter="url(#roughen)" />
  <path d="M 825.2924287131038 160.31039789472948 L 1021.9052463522194 162.88727717059368 L 1020.040182849844 193.05815203146966 L 825.9019986769189 192.88402949529328 Z" fill="none" stroke="#94a3b8" stroke-width="0.9" stroke-linecap="round" stroke-linejoin="round" opacity="0.62" />
  <text x="834" y="178" fill="#1e293b" font-family="Virgil, Comic Sans MS, Pretendard, Apple SD Gothic Neo, Noto Sans CJK KR, Arial, sans-serif" font-size="9" font-weight="500" text-anchor="start" opacity="1"><tspan x="834" dy="0">4.1 산출물 일관성</tspan></text>
  <path d="M 824.5349253042217 204.5482068732493 L 1020.4661383418287 206.4528567728011 L 1019.1040697067054 237.11735127573306 L 825.0019335788912 236.98865200986356 Z" fill="#ffffff" stroke="none" opacity="0.9" filter="url(#fillRoughen)" />
  <path d="M 824.9873992376698 204.9631799059136 L 1021.665924392819 207.6901437245752 L 1017.9477000401466 235.92348070839034 L 826.6260762671302 238.65029559888652 Z" fill="none" stroke="#94a3b8" stroke-width="1.15" stroke-linecap="round" stroke-linejoin="round" opacity="0.82" filter="url(#roughen)" />
  <path d="M 826.6693914749122 206.6873606565379 L 1022.0503511659219 208.03238198429634 L 1019.8965204229105 237.9144896045361 L 825.4313340794135 237.4133648977879 Z" fill="none" stroke="#94a3b8" stroke-width="0.9" stroke-linecap="round" stroke-linejoin="round" opacity="0.62" />
  <text x="834" y="223" fill="#1e293b" font-family="Virgil, Comic Sans MS, Pretendard, Apple SD Gothic Neo, Noto Sans CJK KR, Arial, sans-serif" font-size="9" font-weight="500" text-anchor="start" opacity="1"><tspan x="834" dy="0">4.2 실제 동작 MVP</tspan></text>
  <path d="M 826.6604104895983 251.67369205862602 L 1021.681201496716 252.6679199276883 L 1020.1056962054702 283.1189777744978 L 825.7618628211463 282.7485812521187 Z" fill="#ffffff" stroke="none" opacity="0.9" filter="url(#fillRoughen)" />
  <path d="M 823.9632805177158 248.9390611859595 L 1022.7193564278584 253.7435757596147 L 1019.0031286434045 281.9789093116482 L 825.6299700043002 282.6541893360564 Z" fill="none" stroke="#94a3b8" stroke-width="1.15" stroke-linecap="round" stroke-linejoin="round" opacity="0.82" filter="url(#roughen)" />
  <path d="M 828.182372262255 253.20034144388055 L 1020.4854384657427 251.4674692841171 L 1018.3552433131857 281.3732124948113 L 826.9680609523011 283.9500917706755 Z" fill="none" stroke="#94a3b8" stroke-width="0.9" stroke-linecap="round" stroke-linejoin="round" opacity="0.62" />
  <text x="834" y="268" fill="#1e293b" font-family="Virgil, Comic Sans MS, Pretendard, Apple SD Gothic Neo, Noto Sans CJK KR, Arial, sans-serif" font-size="9" font-weight="500" text-anchor="start" opacity="1"><tspan x="834" dy="0">4.3 명세 구체성</tspan></text>
  <path d="M 826.1889615491706 296.20224311819817 L 1018.9347878046415 294.92150623561383 L 1020.7602140658676 328.77349563489514 L 825.2749705403985 327.26168897137086 Z" fill="#ffffff" stroke="none" opacity="0.9" filter="url(#fillRoughen)" />
  <path d="M 824.7859714860297 294.7617521542734 L 1021.073143124807 297.09736245656325 L 1017.7462722885065 325.7220529567502 L 823.9325205215795 325.9567398533357 Z" fill="none" stroke="#94a3b8" stroke-width="1.15" stroke-linecap="round" stroke-linejoin="round" opacity="0.82" filter="url(#roughen)" />
  <path d="M 827.8389272016797 297.8568963833053 L 1018.3324904806988 294.31452129907314 L 1021.091062569849 329.1090317514746 L 823.8721327548782 325.85416357325255 Z" fill="none" stroke="#94a3b8" stroke-width="0.9" stroke-linecap="round" stroke-linejoin="round" opacity="0.62" />
  <text x="834" y="313" fill="#1e293b" font-family="Virgil, Comic Sans MS, Pretendard, Apple SD Gothic Neo, Noto Sans CJK KR, Arial, sans-serif" font-size="9" font-weight="500" text-anchor="start" opacity="1"><tspan x="834" dy="0">4.4 고도화 기반</tspan></text>
  <path d="M 825.2855708941318 340.29885246315945 L 1020.0938567968071 341.0805752277795 L 1018.7328830539326 371.7461646229602 L 825.7536740610501 372.74039249202247 Z" fill="#ffffff" stroke="none" opacity="0.9" filter="url(#fillRoughen)" />
  <path d="M 828.5929314470601 343.56871211530375 L 1020.7314890223163 341.75570835407257 L 1017.4026216177974 370.37840228604114 L 827.7711882198395 374.7954075515958 Z" fill="none" stroke="#94a3b8" stroke-width="1.15" stroke-linecap="round" stroke-linejoin="round" opacity="0.82" filter="url(#roughen)" />
  <path d="M 823.8126788465569 338.8306480281825 L 1020.4032317249345 341.38526254330884 L 1018.560432983297 371.57840216492264 L 824.4222488103719 371.4042796287463 Z" fill="none" stroke="#94a3b8" stroke-width="0.9" stroke-linecap="round" stroke-linejoin="round" opacity="0.62" />
  <text x="834" y="358" fill="#1e293b" font-family="Virgil, Comic Sans MS, Pretendard, Apple SD Gothic Neo, Noto Sans CJK KR, Arial, sans-serif" font-size="9" font-weight="500" text-anchor="start" opacity="1"><tspan x="834" dy="0">4.5 형식·가독성</tspan></text>
  <path d="M 826.7934039921251 411.7801224230975 L 1018.6641159684314 409.677397537459 L 1020.2397029299615 471.2264213609338 L 826.3418390577756 471.3551206268033 Z" fill="#f8fafc" stroke="none" opacity="0.9" filter="url(#fillRoughen)" />
  <path d="M 823.024667376402 408.04888670815825 L 1018.8861098011457 409.8618904693895 L 1022.2131295656118 473.237348897368 L 827.5861392765506 472.56191994479434 Z" fill="none" stroke="#64748b" stroke-width="1.15" stroke-linecap="round" stroke-linejoin="round" opacity="0.82" filter="url(#roughen)" />
  <path d="M 826.9719297349155 411.95396055328985 L 1018.3813768565378 409.3993460381635 L 1020.2228047684587 471.20483558683304 L 828.2099871304142 473.22795631203985 Z" fill="none" stroke="#64748b" stroke-width="0.9" stroke-linecap="round" stroke-linejoin="round" opacity="0.62" />
  <text x="923" y="433" fill="#1e293b" font-family="Virgil, Comic Sans MS, Pretendard, Apple SD Gothic Neo, Noto Sans CJK KR, Arial, sans-serif" font-size="10" font-weight="500" text-anchor="middle" opacity="1"><tspan x="923" dy="0">주요 증거</tspan></text>
  <text x="923" y="453" fill="#1e293b" font-family="Virgil, Comic Sans MS, Pretendard, Apple SD Gothic Neo, Noto Sans CJK KR, Arial, sans-serif" font-size="10" font-weight="500" text-anchor="middle" opacity="1"><tspan x="923" dy="0">SME E2E·변경이력·시연</tspan></text>
  <path d="M 1065.5220505073253 95.53533207635286 L 1290.0532635441407 94.03998197511304 L 1292.091194909809 501.1044764788366 L 1065.9890587819948 500.9757772129671 Z" fill="#fee2e2" stroke="none" opacity="0.9" filter="url(#fillRoughen)" />
  <path d="M 1065.248347672808 95.22412834105178 L 1293.956732925134 97.98095225689023 L 1290.2385085724616 499.2142892407054 L 1066.9168847994451 501.94110413120154 Z" fill="none" stroke="#334155" stroke-width="1.15" stroke-linecap="round" stroke-linejoin="round" opacity="0.82" filter="url(#roughen)" />
  <path d="M 1066.6270881279202 96.64505730954582 L 1289.3858935522117 93.36792437058592 L 1291.8542170759183 500.872186257544 L 1065.3890307324214 500.3710615507958 Z" fill="none" stroke="#334155" stroke-width="0.9" stroke-linecap="round" stroke-linejoin="round" opacity="0.62" />
  <text x="1178" y="123" fill="#1e293b" font-family="Virgil, Comic Sans MS, Pretendard, Apple SD Gothic Neo, Noto Sans CJK KR, Arial, sans-serif" font-size="14" font-weight="500" text-anchor="middle" opacity="1"><tspan x="1178" dy="0">5. 혁신·확장·리스크</tspan></text>
  <path d="M 1081.7200789854908 161.7333605545185 L 1273.3407883215325 159.32750675250486 L 1275.1652830310784 193.178564600106 L 1080.80499308447 192.7917115154424 Z" fill="#ffffff" stroke="none" opacity="0.9" filter="url(#fillRoughen)" />
  <path d="M 1079.6466250597375 159.62240572798123 L 1272.1726919430944 158.19691127485058 L 1274.656464160084 192.63224482832763 L 1081.3133145463219 193.33753387807812 Z" fill="none" stroke="#94a3b8" stroke-width="1.15" stroke-linecap="round" stroke-linejoin="round" opacity="0.82" filter="url(#roughen)" />
  <path d="M 1080.4625093479087 160.48047852953442 L 1272.7655755513965 158.74760636977098 L 1275.2353803999106 193.2533495815362 L 1079.225933277217 191.20796409559156 Z" fill="none" stroke="#94a3b8" stroke-width="0.9" stroke-linecap="round" stroke-linejoin="round" opacity="0.62" />
  <text x="1089" y="178" fill="#1e293b" font-family="Virgil, Comic Sans MS, Pretendard, Apple SD Gothic Neo, Noto Sans CJK KR, Arial, sans-serif" font-size="9" font-weight="500" text-anchor="start" opacity="1"><tspan x="1089" dy="0">5.1 업무방식 차별성</tspan></text>
  <path d="M 1079.506809539396 204.52009110842369 L 1275.6525541253743 206.63927255634667 L 1274.0616054938084 237.07488706283618 L 1081.9928185314157 238.97953696238798 Z" fill="#ffffff" stroke="none" opacity="0.9" filter="url(#fillRoughen)" />
  <path d="M 1080.2986430108078 205.27442367905155 L 1276.585814649585 207.61003398134142 L 1273.2587948851192 236.23457555336284 L 1079.4451920463575 236.46941137811388 Z" fill="none" stroke="#94a3b8" stroke-width="1.15" stroke-linecap="round" stroke-linejoin="round" opacity="0.82" filter="url(#roughen)" />
  <path d="M 1082.9395279349385 207.95749711656418 L 1273.4107159581292 204.39274677650369 L 1276.1693985423701 239.18736772399566 L 1078.9504687273993 235.9324995457736 Z" fill="none" stroke="#94a3b8" stroke-width="0.9" stroke-linecap="round" stroke-linejoin="round" opacity="0.62" />
  <text x="1089" y="223" fill="#1e293b" font-family="Virgil, Comic Sans MS, Pretendard, Apple SD Gothic Neo, Noto Sans CJK KR, Arial, sans-serif" font-size="9" font-weight="500" text-anchor="start" opacity="1"><tspan x="1089" dy="0">5.2 새 경험/전환</tspan></text>
  <path d="M 1080.197739804093 250.21102137312084 L 1275.0060257067685 250.99274413774086 L 1273.6449702936097 281.6582518626373 L 1080.6493047384427 282.63602316941507 Z" fill="#ffffff" stroke="none" opacity="0.9" filter="url(#fillRoughen)" />
  <path d="M 1079.1445980243022 249.120378692546 L 1277.4833045291675 253.50752386092384 L 1274.184446149991 282.1602268182347 L 1078.3230037252472 280.34722305700353 Z" fill="none" stroke="#94a3b8" stroke-width="1.15" stroke-linecap="round" stroke-linejoin="round" opacity="0.82" filter="url(#roughen)" />
  <path d="M 1080.1124129322852 250.13038211391083 L 1276.7029658106628 252.6849966290372 L 1274.8601670690255 282.878136250651 L 1080.7219828961004 282.7040137144746 Z" fill="none" stroke="#94a3b8" stroke-width="0.9" stroke-linecap="round" stroke-linejoin="round" opacity="0.62" />
  <text x="1089" y="268" fill="#1e293b" font-family="Virgil, Comic Sans MS, Pretendard, Apple SD Gothic Neo, Noto Sans CJK KR, Arial, sans-serif" font-size="9" font-weight="500" text-anchor="start" opacity="1"><tspan x="1089" dy="0">5.3 계열사 확장</tspan></text>
  <path d="M 1079.3548579310661 294.3415763620384 L 1275.9465720291823 296.95985359821 L 1273.9085589932297 326.8952774242021 L 1080.2523923775536 327.2656739465812 Z" fill="#ffffff" stroke="none" opacity="0.9" filter="url(#fillRoughen)" />
  <path d="M 1083.8096761432266 298.8338954749829 L 1275.1012908909008 296.07707155914443 L 1272.6176676020766 325.6418869338329 L 1078.4314193690036 325.4072000372473 Z" fill="none" stroke="#94a3b8" stroke-width="1.15" stroke-linecap="round" stroke-linejoin="round" opacity="0.82" filter="url(#roughen)" />
  <path d="M 1082.5957074290363 297.5777382474108 L 1275.2146372429363 296.2326064245618 L 1272.7449428895127 325.7269737078871 L 1081.9861374652214 329.004106646847 Z" fill="none" stroke="#94a3b8" stroke-width="0.9" stroke-linecap="round" stroke-linejoin="round" opacity="0.62" />
  <text x="1089" y="313" fill="#1e293b" font-family="Virgil, Comic Sans MS, Pretendard, Apple SD Gothic Neo, Noto Sans CJK KR, Arial, sans-serif" font-size="9" font-weight="500" text-anchor="start" opacity="1"><tspan x="1089" dy="0">5.4 PoC→상용 경로</tspan></text>
  <path d="M 1080.68935097642 340.67606940739233 L 1276.1581379396046 342.17141950863214 L 1274.1355682439719 372.1222866749443 L 1081.6043552071565 373.6176367761841 Z" fill="#ffffff" stroke="none" opacity="0.9" filter="url(#fillRoughen)" />
  <path d="M 1082.9544813602824 342.9787006920387 L 1272.228414475482 338.20419514372577 L 1275.916629802812 373.94084913456834 L 1083.7779232993903 375.75370396763407 Z" fill="none" stroke="#94a3b8" stroke-width="1.15" stroke-linecap="round" stroke-linejoin="round" opacity="0.82" filter="url(#roughen)" />
  <path d="M 1082.1585111783954 342.14054199676974 L 1273.2775992394838 339.29556842110946 L 1275.409275716848 373.3913065352224 L 1081.547459889773 373.5654290713988 Z" fill="none" stroke="#94a3b8" stroke-width="0.9" stroke-linecap="round" stroke-linejoin="round" opacity="0.62" />
  <text x="1089" y="358" fill="#1e293b" font-family="Virgil, Comic Sans MS, Pretendard, Apple SD Gothic Neo, Noto Sans CJK KR, Arial, sans-serif" font-size="9" font-weight="500" text-anchor="start" opacity="1"><tspan x="1089" dy="0">5.5 PII·보안·환각·책임</tspan></text>
  <path d="M 1082.38470169671 412.37142012768226 L 1275.3639106895923 411.37719225861997 L 1273.538402758082 469.52512118905435 L 1081.9176934220404 471.930974991068 Z" fill="#f8fafc" stroke="none" opacity="0.9" filter="url(#fillRoughen)" />
  <path d="M 1082.4260878986972 412.4503072304535 L 1274.13891625992 410.1146969281637 L 1277.4377746390965 473.4619939708528 L 1080.759398412113 470.73517908035666 Z" fill="none" stroke="#64748b" stroke-width="1.15" stroke-linecap="round" stroke-linejoin="round" opacity="0.82" filter="url(#roughen)" />
  <path d="M 1078.762104327479 408.7441351458533 L 1276.2685410484598 412.28651023008547 L 1273.5112292939357 469.4932601123101 L 1079.9986803981706 470.01664957979614 Z" fill="none" stroke="#64748b" stroke-width="0.9" stroke-linecap="round" stroke-linejoin="round" opacity="0.62" />
  <text x="1178" y="433" fill="#1e293b" font-family="Virgil, Comic Sans MS, Pretendard, Apple SD Gothic Neo, Noto Sans CJK KR, Arial, sans-serif" font-size="10" font-weight="500" text-anchor="middle" opacity="1"><tspan x="1178" dy="0">주요 증거</tspan></text>
  <text x="1178" y="453" fill="#1e293b" font-family="Virgil, Comic Sans MS, Pretendard, Apple SD Gothic Neo, Noto Sans CJK KR, Arial, sans-serif" font-size="10" font-weight="500" text-anchor="middle" opacity="1"><tspan x="1178" dy="0">PII Guard·로드맵·TCO/SLA</tspan></text>
  <path d="M 44.71184944804102 539.7251310170686 L 1289.4411374709432 538.4278559019156 L 1291.2665637321693 614.2798453011969 L 43.79777676898469 612.7844951999571 Z" fill="#f8fafc" stroke="none" opacity="0.9" filter="url(#fillRoughen)" />
  <path d="M 47.51802876475687 542.4938094330006 L 1289.6350604992674 538.6592798310237 L 1292.5081896644106 615.4839703326542 L 46.69443789748345 615.7186572292397 Z" fill="none" stroke="#94a3b8" stroke-width="1.15" stroke-linecap="round" stroke-linejoin="round" opacity="0.82" filter="url(#roughen)" />
  <path d="M 47.159802785343444 542.1777719669691 L 1289.6533660643624 538.6353968827369 L 1292.389673392775 615.4076425744006 L 43.170743577804124 612.1527743961785 Z" fill="none" stroke="#94a3b8" stroke-width="0.9" stroke-linecap="round" stroke-linejoin="round" opacity="0.62" />
  <text x="65" y="569" fill="#1e293b" font-family="Virgil, Comic Sans MS, Pretendard, Apple SD Gothic Neo, Noto Sans CJK KR, Arial, sans-serif" font-size="13" font-weight="500" text-anchor="start" opacity="1"><tspan x="65" dy="0">강조 우선순위: 3번(AI Agent 설계) → 2번(JB 업무 연계) → 4번(MVP 검증). 간트 G4/G5/G6는 제품 결정·정적 MVP→API 승격·리서치 흡수 증거로 추적한다.</tspan></text>
</svg>
