<?xml version="1.0" encoding="UTF-8"?>
<svg xmlns="http://www.w3.org/2000/svg" width="1950" height="416" viewBox="-35 -30 1950 416" role="img" aria-label="tokens-time">
  <defs>
    <marker id="arrowhead" markerWidth="10" markerHeight="10" refX="8" refY="3" orient="auto" markerUnits="strokeWidth">
      <path d="M0,0 L0,6 L9,3 z" fill="#1e293b" />
    </marker>
    <marker id="arrowhead-start" markerWidth="10" markerHeight="10" refX="1" refY="3" orient="auto" markerUnits="strokeWidth">
      <path d="M9,0 L9,6 L0,3 z" fill="#1e293b" />
    </marker>
    <filter id="roughen" x="-4%" y="-4%" width="108%" height="108%">
      <feTurbulence type="fractalNoise" baseFrequency="0.018" numOctaves="1" seed="11" result="noise" />
      <feDisplacementMap in="SourceGraphic" in2="noise" scale="0.65" />
    </filter>
    <filter id="fillRoughen" x="-2%" y="-2%" width="104%" height="104%">
      <feTurbulence type="fractalNoise" baseFrequency="0.012" numOctaves="1" seed="7" result="noise" />
      <feDisplacementMap in="SourceGraphic" in2="noise" scale="0.35" />
    </filter>
  </defs>
  <rect x="-35" y="-30" width="1950" height="416" fill="#ffffff" />
  <text x="20" y="30" fill="#1e293b" font-family="Virgil, Comic Sans MS, Pretendard, Apple SD Gothic Neo, Noto Sans CJK KR, Arial, sans-serif" font-size="20" font-weight="700" text-anchor="start" opacity="1"><tspan x="20" dy="0">세션별 토큰 사용량 (입력/출력)</tspan></text>
  <text x="5" y="80" fill="#1e293b" font-family="Virgil, Comic Sans MS, Pretendard, Apple SD Gothic Neo, Noto Sans CJK KR, Arial, sans-serif" font-size="10" font-weight="500" text-anchor="start" opacity="1"><tspan x="5" dy="0">22058K</tspan></text>
  <text x="5" y="190" fill="#1e293b" font-family="Virgil, Comic Sans MS, Pretendard, Apple SD Gothic Neo, Noto Sans CJK KR, Arial, sans-serif" font-size="10" font-weight="500" text-anchor="start" opacity="1"><tspan x="5" dy="0">11029K</tspan></text>
  <text x="5" y="288" fill="#1e293b" font-family="Virgil, Comic Sans MS, Pretendard, Apple SD Gothic Neo, Noto Sans CJK KR, Arial, sans-serif" font-size="10" font-weight="500" text-anchor="start" opacity="1"><tspan x="5" dy="0">0</tspan></text>
  <polyline points="55.91801322533703,70.90551292507573 54.42064980739277,279.43315010765406" fill="none" stroke="#1e293b" stroke-width="1.15" stroke-linecap="round" stroke-linejoin="round" opacity="0.76" filter="url(#roughen)" />
  <polyline points="56.26164973458779,71.27258749731644 54.758290261579276,279.74735249885066" fill="none" stroke="#1e293b" stroke-width="0.85" stroke-linecap="round" stroke-linejoin="round" opacity="0.66" />
  <path d="M 70.56000624868554 276.54672467965787 L 113.53921524156797 275.55249681059564 L 115.13016387313375 281.1168823041061 L 70.10945453630049 280.12273610532816 Z" fill="#93c5fd" stroke="none" opacity="0.9" filter="url(#fillRoughen)" />
  <path d="M 72.17289084058089 278.1971101723372 L 113.85571017646132 275.831490844705 L 110.98442865137113 277.00864798312745 L 70.5060524258311 280.48183309407483 Z" fill="none" stroke="#3b82f6" stroke-width="1.15" stroke-linecap="round" stroke-linejoin="round" opacity="0.82" filter="url(#roughen)" />
  <path d="M 70.38888250526247 276.37091332363684 L 113.29531922517235 275.313288406798 L 115.13800747171929 281.12003829009365 L 71.62545857595407 281.6434277575797 Z" fill="none" stroke="#3b82f6" stroke-width="0.9" stroke-linecap="round" stroke-linejoin="round" opacity="0.62" />
  <path d="M 114.25701248314162 275.2702940521693 L 160.1882255207487 277.17494395172105 L 158.80970032334088 279.82298189236855 L 114.70756419552666 279.69428262649905 Z" fill="#fca5a5" stroke="none" opacity="0.9" filter="url(#fillRoughen)" />
  <path d="M 114.77700005310518 275.75278072134887 L 161.45537628008876 278.47959561184507 L 157.7671609527588 278.7429416210025 L 116.44553717974236 281.46975651149864 Z" fill="none" stroke="#ef4444" stroke-width="1.15" stroke-linecap="round" stroke-linejoin="round" opacity="0.82" filter="url(#roughen)" />
  <path d="M 116.25511384288667 277.2730830245123 L 157.03618402791585 274.0182148462902 L 159.5045075516227 280.5224767332483 L 115.01716694247843 279.9991977608528 Z" fill="none" stroke="#ef4444" stroke-width="0.9" stroke-linecap="round" stroke-linejoin="round" opacity="0.62" />
  <text x="117.5" y="293" fill="#1e293b" font-family="Virgil, Comic Sans MS, Pretendard, Apple SD Gothic Neo, Noto Sans CJK KR, Arial, sans-serif" font-size="9" font-weight="500" text-anchor="middle" opacity="1"><tspan x="117.5" dy="0">2026-06-26 direct</tspan></text>
  <path d="M 188.98224874070897 278.99553030973664 L 234.00295807754225 279.9896765085146 L 232.410996224012 278.4242777930396 L 191.4671628404798 281.45388127145213 Z" fill="#93c5fd" stroke="none" opacity="0.9" filter="url(#fillRoughen)" />
  <path d="M 192.1249932210485 282.1007738892922 L 234.65106010440527 280.6752794361616 L 230.93483231995134 276.91061298819506 L 187.59168270618926 277.61590203794555 Z" fill="none" stroke="#3b82f6" stroke-width="1.15" stroke-linecap="round" stroke-linejoin="round" opacity="0.82" filter="url(#roughen)" />
  <path d="M 188.19987018455282 278.21783936617845 L 235.08067162837384 281.0627024467482 L 232.9504764758168 278.96844565744243 L 191.56329411493226 281.54532493330663 Z" fill="none" stroke="#3b82f6" stroke-width="0.9" stroke-linecap="round" stroke-linejoin="round" opacity="0.62" />
  <path d="M 234.77200797038898 274.7852895394166 L 279.79271730722223 275.7794357381946 L 278.2172120159765 279.2304935850041 L 233.85692206936818 278.84364050034054 Z" fill="#fca5a5" stroke="none" opacity="0.9" filter="url(#fillRoughen)" />
  <path d="M 233.1116917190635 273.0874723873072 L 281.83775860386385 277.86197793562013 L 278.1215308194099 279.0973114876536 L 234.7783812056478 279.8026005374041 Z" fill="none" stroke="#ef4444" stroke-width="1.15" stroke-linecap="round" stroke-linejoin="round" opacity="0.82" filter="url(#roughen)" />
  <path d="M 234.0656233209571 274.08359250258275 L 280.9686895255159 276.9507203438903 L 278.8384943729589 279.85646355458454 L 232.8290472502655 277.81107806863986 Z" fill="none" stroke="#ef4444" stroke-width="0.9" stroke-linecap="round" stroke-linejoin="round" opacity="0.62" />
  <text x="237.5" y="293" fill="#1e293b" font-family="Virgil, Comic Sans MS, Pretendard, Apple SD Gothic Neo, Noto Sans CJK KR, Arial, sans-serif" font-size="9" font-weight="500" text-anchor="middle" opacity="1"><tspan x="237.5" dy="0">2026-06-27 orchestrator</tspan></text>
  <text x="240" y="268" fill="#1e293b" font-family="Virgil, Comic Sans MS, Pretendard, Apple SD Gothic Neo, Noto Sans CJK KR, Arial, sans-serif" font-size="9" font-weight="500" text-anchor="middle" opacity="1"><tspan x="240" dy="0">570K</tspan></text>
  <path d="M 309.1739813074176 275.16069973838995 L 352.3657770750266 274.3790586440542 L 353.72776403986563 279.714482470838 L 310.08805398647394 280.1013355555016 Z" fill="#93c5fd" stroke="none" opacity="0.9" filter="url(#fillRoughen)" />
  <path d="M 307.7722960837354 273.7965154154917 L 355.29391985819535 277.26970052643907 L 352.78013861586345 278.80435794761974 L 308.59389038279045 278.56967105103416 Z" fill="none" stroke="#3b82f6" stroke-width="1.15" stroke-linecap="round" stroke-linejoin="round" opacity="0.82" filter="url(#roughen)" />
  <path d="M 312.06077058905754 278.0428014074319 L 354.67970040295734 276.69766958458297 L 352.23216031518115 278.2141911335555 L 311.4512006252425 281.46916980686814 Z" fill="none" stroke="#3b82f6" stroke-width="0.9" stroke-linecap="round" stroke-linejoin="round" opacity="0.62" />
  <path d="M 353.37760438371396 274.3908859527416 L 398.1858902863892 275.1726087173616 L 400.2249165443063 281.23819811333397 L 353.84570755063226 278.8324259816046 Z" fill="#fca5a5" stroke="none" opacity="0.9" filter="url(#fillRoughen)" />
  <path d="M 352.6972722890315 273.6730529572752 L 401.03597879389673 278.060198125653 L 397.70711138937787 278.6828920576216 L 358.04566896607764 283.0698882978339 Z" fill="none" stroke="#ef4444" stroke-width="1.15" stroke-linecap="round" stroke-linejoin="round" opacity="0.82" filter="url(#roughen)" />
  <path d="M 353.75826133570126 274.7762305173269 L 400.3710789748167 277.3531097931911 L 398.52828023317926 279.5462494148049 L 354.39009606025417 279.37212687862853 Z" fill="none" stroke="#ef4444" stroke-width="0.9" stroke-linecap="round" stroke-linejoin="round" opacity="0.62" />
  <text x="357.5" y="293" fill="#1e293b" font-family="Virgil, Comic Sans MS, Pretendard, Apple SD Gothic Neo, Noto Sans CJK KR, Arial, sans-serif" font-size="9" font-weight="500" text-anchor="middle" opacity="1"><tspan x="357.5" dy="0">2026-06-27 gpt-5.3-codex-spark</tspan></text>
  <path d="M 429.5739794922234 279.587261061251 L 475.5051925298304 281.4919109608028 L 474.1431238947071 280.15640546373476 L 430.0409877668929 280.02770619786526 Z" fill="#93c5fd" stroke="none" opacity="0.9" filter="url(#fillRoughen)" />
  <path d="M 429.71341433213405 279.68919500037777 L 476.4217995844599 282.4460189162162 L 472.7035752317876 278.67935590003134 L 431.38195145877125 281.40617079052754 Z" fill="none" stroke="#3b82f6" stroke-width="1.15" stroke-linecap="round" stroke-linejoin="round" opacity="0.82" filter="url(#roughen)" />
  <path d="M 431.2302021009685 281.2481712825941 L 471.98900752525986 277.97103834363423 L 474.4573310489667 280.4753002305923 L 429.99214470546974 279.9741755238441 Z" fill="none" stroke="#3b82f6" stroke-width="0.9" stroke-linecap="round" stroke-linejoin="round" opacity="0.62" />
  <path d="M 476.3386170729153 281.3253355038877 L 519.317907736082 280.3311893051097 L 517.4923998045717 278.4791182355441 L 475.8716087982458 280.88489036727344 Z" fill="#fca5a5" stroke="none" opacity="0.9" filter="url(#fillRoughen)" />
  <path d="M 472.9348163059528 277.95903563770906 L 520.8477935967845 281.82357426502824 L 517.9765120716944 279.00073140345063 L 477.468126820812 282.44390748905573 Z" fill="none" stroke="#ef4444" stroke-width="1.15" stroke-linecap="round" stroke-linejoin="round" opacity="0.82" filter="url(#roughen)" />
  <path d="M 474.77180605006214 279.7538368684365 L 517.678242769972 278.69621195159766 L 519.5433062723473 280.5253370907217 L 476.00849261584426 281.0264617974699 Z" fill="none" stroke="#ef4444" stroke-width="0.9" stroke-linecap="round" stroke-linejoin="round" opacity="0.62" />
  <text x="477.5" y="293" fill="#1e293b" font-family="Virgil, Comic Sans MS, Pretendard, Apple SD Gothic Neo, Noto Sans CJK KR, Arial, sans-serif" font-size="9" font-weight="500" text-anchor="middle" opacity="1"><tspan x="477.5" dy="0">2026-06-27 orchestrator</tspan></text>
  <text x="480" y="273" fill="#1e293b" font-family="Virgil, Comic Sans MS, Pretendard, Apple SD Gothic Neo, Noto Sans CJK KR, Arial, sans-serif" font-size="9" font-weight="500" text-anchor="middle" opacity="1"><tspan x="480" dy="0">50K</tspan></text>
  <path d="M 550.5734679335899 276.5601863645623 L 592.6422548959829 274.65553646501047 L 594.0196852011419 280.00640363211426 L 551.4884721643265 281.5017537333541 Z" fill="#93c5fd" stroke="none" opacity="0.9" filter="url(#fillRoughen)" />
  <path d="M 547.2573100373049 273.2815293690612 L 592.7312431539482 274.7070238221919 L 596.449318578455 282.47353791021123 L 548.0807519764129 278.0565326446566 Z" fill="none" stroke="#3b82f6" stroke-width="1.15" stroke-linecap="round" stroke-linejoin="round" opacity="0.82" filter="url(#roughen)" />
  <path d="M 548.4300386778382 274.41206949621255 L 594.1269724743504 276.14494165597597 L 596.2809137124524 282.26294453082676 L 547.8190978843065 277.8370670659321 Z" fill="none" stroke="#3b82f6" stroke-width="0.9" stroke-linecap="round" stroke-linejoin="round" opacity="0.62" />
  <path d="M 593.4473032362171 274.4605848052447 L 638.4680942433346 275.454812674307 L 640.2925072825961 281.30578885162384 L 595.9322173359878 280.91893576696026 Z" fill="#fca5a5" stroke="none" opacity="0.9" filter="url(#fillRoughen)" />
  <path d="M 598.0015229193265 278.97730358757013 L 640.5275898026832 277.5518091344395 L 636.8413710435716 277.8171517118153 L 593.4683613326326 278.492580664389 Z" fill="none" stroke="#ef4444" stroke-width="1.15" stroke-linecap="round" stroke-linejoin="round" opacity="0.82" filter="url(#roughen)" />
  <path d="M 595.9228972461128 276.9408664277384 L 638.2260739446912 275.2081047630655 L 640.6957682981146 281.71373747974025 L 594.6863211754212 279.66835199379557 Z" fill="none" stroke="#ef4444" stroke-width="0.9" stroke-linecap="round" stroke-linejoin="round" opacity="0.62" />
  <text x="597.5" y="293" fill="#1e293b" font-family="Virgil, Comic Sans MS, Pretendard, Apple SD Gothic Neo, Noto Sans CJK KR, Arial, sans-serif" font-size="9" font-weight="500" text-anchor="middle" opacity="1"><tspan x="597.5" dy="0">2026-06-30 gpt-5.5-xhigh</tspan></text>
  <path d="M 670.454172308127 186.4674538771546 L 713.1999168933136 185.186635324286 L 715.0089682625395 281.02224983156714 L 669.5401812993549 279.5268997303273 Z" fill="#93c5fd" stroke="none" opacity="0.9" filter="url(#fillRoughen)" />
  <path d="M 669.6866405968058 185.66242126504946 L 716.0036723327598 188.02789166451615 L 712.6768014964593 278.65258216470306 L 668.8630497295323 278.88726906128863 Z" fill="none" stroke="#3b82f6" stroke-width="1.15" stroke-linecap="round" stroke-linejoin="round" opacity="0.82" filter="url(#roughen)" />
  <path d="M 670.059095434928 186.07706461655374 L 715.1526587150182 187.1346895333926 L 713.2890765374501 279.30704571907575 L 670.6700362284598 280.6520670468342 Z" fill="none" stroke="#3b82f6" stroke-width="0.9" stroke-linecap="round" stroke-linejoin="round" opacity="0.62" />
  <path d="M 716.667017413575 266.6537358445473 L 758.5211911573124 264.53447272634 L 760.0967781188425 281.0834965498148 L 716.1989142466567 281.2121958156843 Z" fill="#fca5a5" stroke="none" opacity="0.9" filter="url(#fillRoughen)" />
  <path d="M 712.959470150587 262.9836894823433 L 758.8207636471653 264.79654431540905 L 755.9477834101878 276.97200274194404 L 717.4907840972279 282.4665647654716 Z" fill="none" stroke="#ef4444" stroke-width="1.15" stroke-linecap="round" stroke-linejoin="round" opacity="0.82" filter="url(#roughen)" />
  <path d="M 714.5927945077635 264.5748253261379 L 760.5799768697191 266.5979460513447 L 757.8435590462162 278.8255898645906 L 715.8307414081718 280.8487105897974 Z" fill="none" stroke="#ef4444" stroke-width="0.9" stroke-linecap="round" stroke-linejoin="round" opacity="0.62" />
  <text x="717.5" y="293" fill="#1e293b" font-family="Virgil, Comic Sans MS, Pretendard, Apple SD Gothic Neo, Noto Sans CJK KR, Arial, sans-serif" font-size="9" font-weight="500" text-anchor="middle" opacity="1"><tspan x="717.5" dy="0">2026-06-30 direct</tspan></text>
  <text x="720" y="179" fill="#1e293b" font-family="Virgil, Comic Sans MS, Pretendard, Apple SD Gothic Neo, Noto Sans CJK KR, Arial, sans-serif" font-size="9" font-weight="500" text-anchor="middle" opacity="1"><tspan x="720" dy="0">11918K</tspan></text>
  <path d="M 788.3035738950604 125.316855464088 L 834.2347869326675 127.22150536363979 L 832.8727999678284 278.886081536856 L 788.7706638400142 278.7573822709865 Z" fill="#93c5fd" stroke="none" opacity="0.9" filter="url(#fillRoughen)" />
  <path d="M 791.9701214261516 128.94590209439534 L 832.4785066770339 125.50272600879025 L 834.9602823258052 280.93606299404894 L 787.4386585513453 277.46287788310156 Z" fill="none" stroke="#3b82f6" stroke-width="1.15" stroke-linecap="round" stroke-linejoin="round" opacity="0.82" filter="url(#roughen)" />
  <path d="M 788.2822684089147 125.30023759054026 L 833.6633385950148 126.64536941338922 L 836.1316621187217 282.1496313003473 L 791.6664757752247 281.6485065935991 Z" fill="none" stroke="#3b82f6" stroke-width="0.9" stroke-linecap="round" stroke-linejoin="round" opacity="0.62" />
  <path d="M 836.1035241961022 234.09024262707453 L 878.1723111584951 232.18559272752273 L 879.5497414636542 280.5364598946265 L 833.6185284260471 278.6318099950747 Z" fill="#fca5a5" stroke="none" opacity="0.9" filter="url(#fillRoughen)" />
  <path d="M 835.36023927812 233.38445860987633 L 880.8341723947633 234.80995306300696 L 878.352396745992 279.3766160777483 L 836.2138391707358 281.18961983897947 Z" fill="none" stroke="#ef4444" stroke-width="1.15" stroke-linecap="round" stroke-linejoin="round" opacity="0.82" filter="url(#roughen)" />
  <path d="M 837.1277267646575 235.10975758303184 L 878.2246605600986 232.24262974172427 L 880.3562265423723 281.3382573607467 L 836.4944107152975 281.51237989692305 Z" fill="none" stroke="#ef4444" stroke-width="0.9" stroke-linecap="round" stroke-linejoin="round" opacity="0.62" />
  <text x="837.5" y="293" fill="#1e293b" font-family="Virgil, Comic Sans MS, Pretendard, Apple SD Gothic Neo, Noto Sans CJK KR, Arial, sans-serif" font-size="9" font-weight="500" text-anchor="middle" opacity="1"><tspan x="837.5" dy="0">2026-06-30 direct</tspan></text>
  <text x="840" y="120" fill="#1e293b" font-family="Virgil, Comic Sans MS, Pretendard, Apple SD Gothic Neo, Noto Sans CJK KR, Arial, sans-serif" font-size="9" font-weight="500" text-anchor="middle" opacity="1"><tspan x="840" dy="0">22058K</tspan></text>
  <path d="M 910.2410957452238 276.2278141761962 L 953.2203047381063 275.2335863071339 L 954.811253369672 280.7979718006444 L 909.7905440328387 279.80382560186644 Z" fill="#93c5fd" stroke="none" opacity="0.9" filter="url(#fillRoughen)" />
  <path d="M 911.8578312740098 277.88205060576604 L 953.5406506098901 275.51643127813384 L 956.8693690862435 282.8935884179998 L 910.19099285926 280.16677352750366 Z" fill="none" stroke="#3b82f6" stroke-width="1.15" stroke-linecap="round" stroke-linejoin="round" opacity="0.82" filter="url(#roughen)" />
  <path d="M 910.1551286332904 276.1371594516647 L 953.0615653532002 275.0795345348258 L 954.9042535997471 280.88628441812153 L 911.3917047039819 281.40967388560756 Z" fill="none" stroke="#3b82f6" stroke-width="0.9" stroke-linecap="round" stroke-linejoin="round" opacity="0.62" />
  <path d="M 953.7070694288255 274.7203509978532 L 998.5153553315008 275.5020737624732 L 1000.5379250271334 281.5512065961611 L 954.1587160334593 279.1454344644317 Z" fill="#fca5a5" stroke="none" opacity="0.9" filter="url(#fillRoughen)" />
  <path d="M 957.0464476046493 278.0222282728931 L 999.1850051799056 276.20922451166183 L 1002.0861468021726 283.06192747041626 L 956.2248533055943 281.24907263735054 Z" fill="none" stroke="#ef4444" stroke-width="1.15" stroke-linecap="round" stroke-linejoin="round" opacity="0.82" filter="url(#roughen)" />
  <path d="M 952.8047489216796 273.82271810330514 L 999.417566560795 276.39959737916934 L 997.5525030584197 278.5704722400453 L 953.4143188854946 278.3963497038689 Z" fill="none" stroke="#ef4444" stroke-width="0.9" stroke-linecap="round" stroke-linejoin="round" opacity="0.62" />
  <text x="957.5" y="293" fill="#1e293b" font-family="Virgil, Comic Sans MS, Pretendard, Apple SD Gothic Neo, Noto Sans CJK KR, Arial, sans-serif" font-size="9" font-weight="500" text-anchor="middle" opacity="1"><tspan x="957.5" dy="0">2026-06-30 via-claude</tspan></text>
  <path d="M 1030.6264724222772 278.6397539913048 L 1073.3558421154637 277.342560546436 L 1075.1812683766898 281.1945499457173 L 1029.7124814135052 279.6991998444775 Z" fill="#93c5fd" stroke="none" opacity="0.9" filter="url(#fillRoughen)" />
  <path d="M 1029.5305848166417 277.50636548488546 L 1075.8177564554192 279.84197578717533 L 1072.520894644461 278.49667531270455 L 1028.707142877534 278.7313622092901 Z" fill="none" stroke="#3b82f6" stroke-width="1.15" stroke-linecap="round" stroke-linejoin="round" opacity="0.82" filter="url(#roughen)" />
  <path d="M 1029.1867865363804 277.20475571800597 L 1074.2803498164706 278.2623806348449 L 1072.4389219045497 278.4568910861753 L 1029.797727329912 279.7797581482864 Z" fill="none" stroke="#3b82f6" stroke-width="0.9" stroke-linecap="round" stroke-linejoin="round" opacity="0.62" />
  <path d="M 1074.9388152362403 278.92553366721273 L 1118.130529333565 278.1438109025927 L 1119.5089728606886 280.49569129166093 L 1075.8528062450123 280.86608781404004 Z" fill="#fca5a5" stroke="none" opacity="0.9" filter="url(#fillRoughen)" />
  <path d="M 1072.7229946248287 276.747213956585 L 1120.2446183992886 280.22039906753236 L 1117.7609951104646 278.7852144422208 L 1073.574597949226 278.5503786174698 Z" fill="none" stroke="#ef4444" stroke-width="1.15" stroke-linecap="round" stroke-linejoin="round" opacity="0.82" filter="url(#roughen)" />
  <path d="M 1072.8439826761241 276.82601349449857 L 1120.062912491095 280.08088167272064 L 1117.5932181376716 278.57524895604587 L 1076.8121479526424 281.83011713426794 Z" fill="none" stroke="#ef4444" stroke-width="0.9" stroke-linecap="round" stroke-linejoin="round" opacity="0.62" />
  <text x="1077.5" y="293" fill="#1e293b" font-family="Virgil, Comic Sans MS, Pretendard, Apple SD Gothic Neo, Noto Sans CJK KR, Arial, sans-serif" font-size="9" font-weight="500" text-anchor="middle" opacity="1"><tspan x="1077.5" dy="0">2026-06-30 direct</tspan></text>
  <text x="1080" y="271" fill="#1e293b" font-family="Virgil, Comic Sans MS, Pretendard, Apple SD Gothic Neo, Noto Sans CJK KR, Arial, sans-serif" font-size="9" font-weight="500" text-anchor="middle" opacity="1"><tspan x="1080" dy="0">340K</tspan></text>
  <path d="M 1150.5857711311164 271.599052700144 L 1193.1005276056474 270.0872460366197 L 1195.1385406416 281.1518222106276 L 1151.0363228435015 281.02304127447377 Z" fill="#93c5fd" stroke="none" opacity="0.9" filter="url(#fillRoughen)" />
  <path d="M 1148.4410643234246 269.4168449916683 L 1195.1194405504082 272.14365988216446 L 1191.401216197736 277.3769968659796 L 1150.1096014500617 280.1338207818181 Z" fill="none" stroke="#3b82f6" stroke-width="1.15" stroke-linecap="round" stroke-linejoin="round" opacity="0.82" filter="url(#roughen)" />
  <path d="M 1147.7366342955354 268.754603477161 L 1193.1175939865452 270.0996248049195 L 1195.5860280053425 281.6039971869681 L 1151.0985769011077 281.0806077194821 Z" fill="none" stroke="#3b82f6" stroke-width="0.9" stroke-linecap="round" stroke-linejoin="round" opacity="0.62" />
  <path d="M 1194.7071978381853 276.6939162691575 L 1237.686488501352 275.69977007037954 L 1239.2774371329176 280.26415556389003 L 1194.2566461258002 279.26992769482774 Z" fill="#fca5a5" stroke="none" opacity="0.9" filter="url(#fillRoughen)" />
  <path d="M 1193.9435411733677 275.9677605051239 L 1241.826509438857 279.8022901071008 L 1238.955227913767 279.9794472455232 L 1192.2768516867834 277.25263235502706 Z" fill="none" stroke="#ef4444" stroke-width="1.15" stroke-linecap="round" stroke-linejoin="round" opacity="0.82" filter="url(#roughen)" />
  <path d="M 1193.3297588802943 275.3117896986687 L 1240.8361956012752 278.85416478290085 L 1238.0789943418417 279.06102516021605 L 1194.566334950986 279.5843041326116 Z" fill="none" stroke="#ef4444" stroke-width="0.9" stroke-linecap="round" stroke-linejoin="round" opacity="0.62" />
  <text x="1197.5" y="293" fill="#1e293b" font-family="Virgil, Comic Sans MS, Pretendard, Apple SD Gothic Neo, Noto Sans CJK KR, Arial, sans-serif" font-size="9" font-weight="500" text-anchor="middle" opacity="1"><tspan x="1197.5" dy="0">2026-06-30 direct</tspan></text>
  <text x="1200" y="264" fill="#1e293b" font-family="Virgil, Comic Sans MS, Pretendard, Apple SD Gothic Neo, Noto Sans CJK KR, Arial, sans-serif" font-size="9" font-weight="500" text-anchor="middle" opacity="1"><tspan x="1200" dy="0">1334K</tspan></text>
  <path d="M 1268.3477226755226 251.3344411064951 L 1313.6184346526206 252.6317162216482 L 1315.1939399438663 281.1806583748387 L 1271.2961577419649 281.30943931099245 Z" fill="#93c5fd" stroke="none" opacity="0.9" filter="url(#fillRoughen)" />
  <path d="M 1271.8823361904786 254.90655552223478 L 1311.5437786137786 250.5195592820224 L 1314.8406404247369 280.8648597564932 L 1270.2136501356758 280.18943080391955 Z" fill="none" stroke="#3b82f6" stroke-width="1.15" stroke-linecap="round" stroke-linejoin="round" opacity="0.82" filter="url(#roughen)" />
  <path d="M 1269.578480766732 252.56051158510627 L 1315.5656631286874 254.58363231031308 L 1312.8069805444468 278.7890113628211 L 1270.81642766714 280.8343968487658 Z" fill="none" stroke="#3b82f6" stroke-width="0.9" stroke-linecap="round" stroke-linejoin="round" opacity="0.62" />
  <path d="M 1314.6315272379973 273.6448088070249 L 1359.4232749081038 274.40999333907615 L 1358.0623011652292 279.0755827342569 L 1315.0830921723468 280.0698106033192 Z" fill="#fca5a5" stroke="none" opacity="0.9" filter="url(#fillRoughen)" />
  <path d="M 1315.6126896751841 274.58847034342784 L 1357.7512472504404 272.77546658219666 L 1360.6225287755306 281.5983094437742 L 1314.7610863507869 279.785305682543 Z" fill="none" stroke="#ef4444" stroke-width="1.15" stroke-linecap="round" stroke-linejoin="round" opacity="0.82" filter="url(#roughen)" />
  <path d="M 1315.9212024496917 274.9391716313174 L 1357.9340200877361 272.91605090611057 L 1360.6913318422603 281.7093010238859 L 1316.5531476693352 281.5351784877095 Z" fill="none" stroke="#ef4444" stroke-width="0.9" stroke-linecap="round" stroke-linejoin="round" opacity="0.62" />
  <text x="1317.5" y="293" fill="#1e293b" font-family="Virgil, Comic Sans MS, Pretendard, Apple SD Gothic Neo, Noto Sans CJK KR, Arial, sans-serif" font-size="9" font-weight="500" text-anchor="middle" opacity="1"><tspan x="1317.5" dy="0">2026-07-01 direct</tspan></text>
  <text x="1320" y="246" fill="#1e293b" font-family="Virgil, Comic Sans MS, Pretendard, Apple SD Gothic Neo, Noto Sans CJK KR, Arial, sans-serif" font-size="9" font-weight="500" text-anchor="middle" opacity="1"><tspan x="1320" dy="0">3675K</tspan></text>
  <path d="M 1390.7889423380348 276.7756607690071 L 1432.8577293004278 274.8710108694553 L 1434.2187030433022 280.2054214742746 L 1391.6874900064868 278.3007715747228 Z" fill="#93c5fd" stroke="none" opacity="0.9" filter="url(#fillRoughen)" />
  <path d="M 1387.0622291534585 273.0864484852148 L 1432.5061532447594 274.48193391300316 L 1436.2243775974318 282.248596929188 L 1387.8856710925666 277.8614517608102 Z" fill="none" stroke="#3b82f6" stroke-width="1.15" stroke-linecap="round" stroke-linejoin="round" opacity="0.82" filter="url(#roughen)" />
  <path d="M 1389.9605844895495 275.94261530792403 L 1435.6574077909713 277.67537697259695 L 1433.1890842672644 279.17111508563886 L 1389.3272684401895 279.3452376218152 Z" fill="none" stroke="#3b82f6" stroke-width="0.9" stroke-linecap="round" stroke-linejoin="round" opacity="0.62" />
  <path d="M 1435.8026940194197 276.81597558844743 L 1477.4234850257458 274.4102034567181 L 1479.2314415027229 280.2447230717504 L 1434.8876897886832 279.8744082196556 Z" fill="#fca5a5" stroke="none" opacity="0.9" filter="url(#fillRoughen)" />
  <path d="M 1432.3181750952774 273.2939557635211 L 1481.0442419800777 278.068461311834 L 1477.3278652674583 278.30364593570204 L 1433.9848645818618 279.00908391361804 Z" fill="none" stroke="#ef4444" stroke-width="1.15" stroke-linecap="round" stroke-linejoin="round" opacity="0.82" filter="url(#roughen)" />
  <path d="M 1434.2335212536002 275.2514904352258 L 1481.1143226974211 278.0963535157955 L 1478.9840170497737 280.00198623139926 L 1432.9968346878181 277.9788655061924 Z" fill="none" stroke="#ef4444" stroke-width="0.9" stroke-linecap="round" stroke-linejoin="round" opacity="0.62" />
  <text x="1437.5" y="293" fill="#1e293b" font-family="Virgil, Comic Sans MS, Pretendard, Apple SD Gothic Neo, Noto Sans CJK KR, Arial, sans-serif" font-size="9" font-weight="500" text-anchor="middle" opacity="1"><tspan x="1437.5" dy="0">2026-07-01 via-claude</tspan></text>
  <path d="M 1508.6437996144275 256.6570811834552 L 1554.5749309817504 258.5616494127227 L 1553.1964874546268 279.2097690236545 L 1509.0943513268126 279.081069757785 Z" fill="#93c5fd" stroke="none" opacity="0.9" filter="url(#fillRoughen)" />
  <path d="M 1507.0520860768743 255.02786674511802 L 1553.7304623038578 257.7546816356142 L 1556.2423959061368 282.21817657438066 L 1508.720772131677 278.7449914634332 Z" fill="none" stroke="#3b82f6" stroke-width="1.15" stroke-linecap="round" stroke-linejoin="round" opacity="0.82" filter="url(#roughen)" />
  <path d="M 1509.2334034734251 257.25137265505066 L 1554.6144736595252 258.59650447789966 L 1552.4829076772517 278.50087685887723 L 1507.9954565730168 277.9774873913912 Z" fill="none" stroke="#3b82f6" stroke-width="0.9" stroke-linecap="round" stroke-linejoin="round" opacity="0.62" />
  <path d="M 1556.578513516597 276.59179508562477 L 1597.9867994184808 273.9735178494532 L 1600.0258256763977 281.0391072454255 L 1553.6466166827238 278.63333511369615 Z" fill="#fca5a5" stroke="none" opacity="0.9" filter="url(#fillRoughen)" />
  <path d="M 1553.387376917919 273.3631575861627 L 1601.755943519961 277.78016285171736 L 1598.4270761154423 279.40285678368593 L 1552.5656336906984 277.58985302245475 Z" fill="none" stroke="#ef4444" stroke-width="1.15" stroke-linecap="round" stroke-linejoin="round" opacity="0.82" filter="url(#roughen)" />
  <path d="M 1554.2924287131038 274.3103978947295 L 1600.9052463522194 276.8872771705937 L 1599.040182849844 280.05815203146966 L 1554.901998676919 279.8840294952933 Z" fill="none" stroke="#ef4444" stroke-width="0.9" stroke-linecap="round" stroke-linejoin="round" opacity="0.62" />
  <text x="1557.5" y="293" fill="#1e293b" font-family="Virgil, Comic Sans MS, Pretendard, Apple SD Gothic Neo, Noto Sans CJK KR, Arial, sans-serif" font-size="9" font-weight="500" text-anchor="middle" opacity="1"><tspan x="1557.5" dy="0">2026-07-01 direct</tspan></text>
  <text x="1560" y="251" fill="#1e293b" font-family="Virgil, Comic Sans MS, Pretendard, Apple SD Gothic Neo, Noto Sans CJK KR, Arial, sans-serif" font-size="9" font-weight="500" text-anchor="middle" opacity="1"><tspan x="1560" dy="0">3007K</tspan></text>
  <path d="M 1630.8550318734615 276.8417503044339 L 1673.834240866344 275.8475224353717 L 1675.4088146059096 281.39553303688194 L 1630.388023598792 280.40130516781966 Z" fill="#93c5fd" stroke="none" opacity="0.9" filter="url(#fillRoughen)" />
  <path d="M 1631.3532809998032 277.3775003315596 L 1673.066109361026 275.0418900292697 L 1676.394976765545 282.41919609730115 L 1629.686591513219 279.6623721814627 Z" fill="none" stroke="#3b82f6" stroke-width="1.15" stroke-linecap="round" stroke-linejoin="round" opacity="0.82" filter="url(#roughen)" />
  <path d="M 1630.537420954331 276.5194517727055 L 1673.4438576742411 275.46182685586666 L 1675.2866564158785 281.26868723425287 L 1631.7739970250227 281.7919662066484 Z" fill="none" stroke="#3b82f6" stroke-width="0.9" stroke-linecap="round" stroke-linejoin="round" opacity="0.62" />
  <path d="M 1675.6604104895985 276.67369205862605 L 1720.6812014967159 277.6679199276883 L 1719.1056962054702 280.1189777744978 L 1674.7618628211465 279.7485812521187 Z" fill="#fca5a5" stroke="none" opacity="0.9" filter="url(#fillRoughen)" />
  <path d="M 1672.9632805177157 273.93906118595953 L 1721.7193564278584 278.7435757596147 L 1718.0031286434046 278.9789093116482 L 1674.6299700043 279.6541893360564 Z" fill="none" stroke="#ef4444" stroke-width="1.15" stroke-linecap="round" stroke-linejoin="round" opacity="0.82" filter="url(#roughen)" />
  <path d="M 1677.1823722622548 278.2003414438805 L 1719.4854384657426 276.4674692841171 L 1717.3552433131856 278.3732124948113 L 1675.9680609523011 280.9500917706755 Z" fill="none" stroke="#ef4444" stroke-width="0.9" stroke-linecap="round" stroke-linejoin="round" opacity="0.62" />
  <text x="1677.5" y="293" fill="#1e293b" font-family="Virgil, Comic Sans MS, Pretendard, Apple SD Gothic Neo, Noto Sans CJK KR, Arial, sans-serif" font-size="9" font-weight="500" text-anchor="middle" opacity="1"><tspan x="1677.5" dy="0">2026-07-01 via-claude</tspan></text>
  <path d="M 1750.1889615491705 247.20224311819817 L 1792.9347878046415 245.92150623561383 L 1794.7602140658676 280.77349563489514 L 1749.2749705403985 279.26168897137086 Z" fill="#93c5fd" stroke="none" opacity="0.9" filter="url(#fillRoughen)" />
  <path d="M 1748.7859714860297 245.76175215427338 L 1795.0731431248068 248.09736245656325 L 1791.7462722885064 277.7220529567502 L 1747.9325205215794 277.9567398533357 Z" fill="none" stroke="#3b82f6" stroke-width="1.15" stroke-linecap="round" stroke-linejoin="round" opacity="0.82" filter="url(#roughen)" />
  <path d="M 1751.8389272016796 248.8568963833053 L 1792.3324904806987 245.31452129907314 L 1795.0910625698489 281.1090317514746 L 1747.872132754878 277.85416357325255 Z" fill="none" stroke="#3b82f6" stroke-width="0.9" stroke-linecap="round" stroke-linejoin="round" opacity="0.62" />
  <path d="M 1796.4039479458015 275.3906663767739 L 1839.5956620431261 274.60894361215384 L 1837.557730677458 278.5444491084303 L 1793.917938953782 278.9312205228096 Z" fill="#fca5a5" stroke="none" opacity="0.9" filter="url(#fillRoughen)" />
  <path d="M 1796.4373359305173 275.4615552622735 L 1837.7589597035337 272.7347403717774 L 1841.4451784626453 282.4693977944016 L 1797.2589302295723 282.23471089781606 Z" fill="none" stroke="#ef4444" stroke-width="1.15" stroke-linecap="round" stroke-linejoin="round" opacity="0.82" filter="url(#roughen)" />
  <path d="M 1795.5775195292842 274.5595503476587 L 1838.218714103922 273.2366832855476 L 1840.348909256479 281.33094007485334 L 1794.9678390703787 279.9858082520044 Z" fill="none" stroke="#ef4444" stroke-width="0.9" stroke-linecap="round" stroke-linejoin="round" opacity="0.62" />
  <text x="1797.5" y="293" fill="#1e293b" font-family="Virgil, Comic Sans MS, Pretendard, Apple SD Gothic Neo, Noto Sans CJK KR, Arial, sans-serif" font-size="9" font-weight="500" text-anchor="middle" opacity="1"><tspan x="1797.5" dy="0">2026-07-01 direct</tspan></text>
  <text x="1800" y="240" fill="#1e293b" font-family="Virgil, Comic Sans MS, Pretendard, Apple SD Gothic Neo, Noto Sans CJK KR, Arial, sans-serif" font-size="9" font-weight="500" text-anchor="middle" opacity="1"><tspan x="1800" dy="0">4200K</tspan></text>
  <path d="M 60.79340399212516 330.7801224230975 L 74.66411596843137 328.677397537459 L 76.23970292996142 346.2264213609338 L 60.341839057775644 346.3551206268033 Z" fill="#93c5fd" stroke="none" opacity="0.9" filter="url(#fillRoughen)" />
  <path d="M 57.02466737640199 327.04888670815825 L 74.88610980114576 328.8618904693895 L 78.21312956561175 348.237348897368 L 61.58613927655065 347.56191994479434 Z" fill="none" stroke="#3b82f6" stroke-width="1.15" stroke-linecap="round" stroke-linejoin="round" opacity="0.82" filter="url(#roughen)" />
  <path d="M 60.97192973491548 330.95396055328985 L 74.38137685653786 328.3993460381635 L 76.22280476845866 346.20483558683304 L 62.20998713041423 348.22795631203985 Z" fill="none" stroke="#3b82f6" stroke-width="0.9" stroke-linecap="round" stroke-linejoin="round" opacity="0.62" />
  <text x="80" y="341" fill="#1e293b" font-family="Virgil, Comic Sans MS, Pretendard, Apple SD Gothic Neo, Noto Sans CJK KR, Arial, sans-serif" font-size="11" font-weight="500" text-anchor="start" opacity="1"><tspan x="80" dy="0">입력 토큰</tspan></text>
  <path d="M 158.8866880872256 328.87340651819795 L 177.26597875118395 331.27926032021156 L 175.4404708196736 345.427189250646 L 158.41967981255607 344.4329613815837 Z" fill="#fca5a5" stroke="none" opacity="0.9" filter="url(#fillRoughen)" />
  <path d="M 158.4697496466268 328.4939689783831 L 178.38272693745856 332.35850760570224 L 175.51144541236837 345.5356647441247 L 163.00306016148605 348.9788408297298 Z" fill="none" stroke="#ef4444" stroke-width="1.15" stroke-linecap="round" stroke-linejoin="round" opacity="0.82" filter="url(#roughen)" />
  <path d="M 160.16869207701382 330.1507228953882 L 175.0751287969237 329.09309797854934 L 176.94019229929899 346.92222311767335 L 161.40537864279594 347.42334782442157 Z" fill="none" stroke="#ef4444" stroke-width="0.9" stroke-linecap="round" stroke-linejoin="round" opacity="0.62" />
  <text x="180" y="341" fill="#1e293b" font-family="Virgil, Comic Sans MS, Pretendard, Apple SD Gothic Neo, Noto Sans CJK KR, Arial, sans-serif" font-size="11" font-weight="500" text-anchor="start" opacity="1"><tspan x="180" dy="0">출력 토큰</tspan></text>
  <polyline points="53.491575379690985,278.5040756799523 1874.7890108596043,279.7765105593429" fill="none" stroke="#1e293b" stroke-width="1.15" stroke-linecap="round" stroke-linejoin="round" opacity="0.76" filter="url(#roughen)" />
  <polyline points="54.124599650531216,279.11366188780255 1875.8028960693168,280.81383383204553" fill="none" stroke="#1e293b" stroke-width="0.85" stroke-linecap="round" stroke-linejoin="round" opacity="0.66" />
</svg>
